<svg id="Layer_1" data-name="Layer 1" xmlns="http://www.w3.org/2000/svg" viewBox="0 0 920 695.9"><defs><style>.cls-1,.cls-2{fill:#fff;}.cls-2,.cls-3,.cls-4{stroke:#000;stroke-width:2px;}.cls-3{fill:none;}</style></defs><title>overview</title><path class="cls-1" d="M0,0H920V695.9H0Z"/><path class="cls-2" d="M20,155.9H180v160H20Z"/><g id="a"><path id="x" d="M83.52,216.3c4.35,0,9.55-.75,9.55,3.75,0,3.9-3.85,4-7.9,3.8v4.85H83.52Zm1.65,6.25c2.85,0,6.2.55,6.2-2.5s-3.4-2.35-6.2-2.4v4.9"/><path id="y" d="M95.22,228.7v-13h1.6v13h-1.6"/><path id="z" d="M105,226.9a3.71,3.71,0,0,1-3.4,2,2.67,2.67,0,0,1-2.9-2.85c0-3.2,3.15-3.15,6.25-3.15.15-1.75-.45-2.7-2-2.7-1.2.05-2,.35-2.1,1.55l-1.65-.15c.25-1.85,1.65-2.6,3.8-2.6s3.6,1,3.6,3.2v4.1c0,1,.35,1.6,1.4,1.35v1C106.42,229.1,104.92,228.55,105,226.9Zm-4.65-.85a1.51,1.51,0,0,0,1.6,1.65c2-.15,3.15-1.45,3-3.7-2.15.1-4.6-.25-4.6,2.05"/><path id="A-2" data-name="A" d="M113.82,219c4.45-.2,2.65,5.8,3,9.7h-1.6v-6c0-1.55-.4-2.45-2-2.4-3.6.1-2.2,5.1-2.45,8.45h-1.6l0-9.5h1.5a8.08,8.08,0,0,0,.1,1.6,3.16,3.16,0,0,1,3-1.8"/></g><g id="b"><path id="B-2" data-name="B" d="M57.2,241.35a3.53,3.53,0,0,0-3.65-2.25c-2.95,0-4.35,2-4.35,5s1.45,5,4.45,5c2.15,0,3.1-1.2,3.9-2.6l1.35.7a5.51,5.51,0,0,1-5.35,3.3c-4,0-5.85-2.5-6-6.45-.3-5.2,5-7.65,9.35-5.55a4.05,4.05,0,0,1,1.95,2.3"/><path id="C" d="M64.55,240.6c3.1,0,4.25,1.85,4.25,5s-1.35,4.95-4.3,4.95-4.15-1.95-4.2-4.95C60.3,242.25,61.7,240.6,64.55,240.6Zm0,8.7c2.2,0,2.65-1.55,2.65-3.75s-.4-3.75-2.55-3.75S62,243.4,62,245.55s.5,3.7,2.55,3.75"/><path id="A-3" data-name="A" d="M75.4,240.6c4.45-.2,2.65,5.8,3,9.7H76.8v-6.05c0-1.55-.4-2.45-2-2.4-3.6.1-2.2,5.1-2.45,8.45H70.8l0-9.5h1.5a8.08,8.08,0,0,0,.1,1.6,3.16,3.16,0,0,1,3.05-1.8"/><path id="D" d="M84.6,238.6c-1.55-.45-2.1.5-1.9,2.2h1.9V242H82.7v8.35H81.15V242H79.8V240.8h1.35c-.35-2.6.85-4.1,3.45-3.4v1.2"/><path id="E" d="M85.75,238.75v-1.5h1.6v1.5Zm0,11.55v-9.5h1.6v9.5h-1.6"/><path id="F" d="M97.35,240.8c-.5,6.25,2.05,14.65-5.5,13a2.85,2.85,0,0,1-2.2-2.15l1.6-.25c.75,2.35,5,1.6,4.45-1.4v-1.5a3.16,3.16,0,0,1-3,1.8c-2.7,0-3.4-2-3.4-4.8s.8-4.85,3.55-4.9a3.21,3.21,0,0,1,3,1.75c0-.5,0-1.15.1-1.6Zm-4.15,8.4c1.8,0,2.5-1.6,2.5-3.65s-.7-3.75-2.5-3.75c-2,0-2.3,1.7-2.3,3.75s.3,3.65,2.3,3.65"/><path id="G" d="M102.7,250.5c-4.45.2-2.7-5.8-3-9.7h1.6v6c0,1.55.35,2.5,2,2.45,3.6-.1,2.25-5.05,2.5-8.45h1.55l0,9.5h-1.5a8.61,8.61,0,0,0-.1-1.65,3.12,3.12,0,0,1-3,1.85"/><path id="H" d="M114.2,242.15c-3.9-.8-2.65,4.55-2.85,8.15h-1.6l0-9.5h1.5a12.11,12.11,0,0,0,.1,1.95c.3-1.35,1.15-2.45,2.9-2.05v1.45"/><path id="z-2" data-name="z" d="M121.5,248.5a3.71,3.71,0,0,1-3.4,2,2.67,2.67,0,0,1-2.9-2.85c0-3.2,3.15-3.15,6.25-3.15.15-1.75-.45-2.7-2-2.7-1.2,0-2.05.35-2.1,1.55l-1.65-.15c.25-1.85,1.65-2.6,3.8-2.6s3.6,1,3.6,3.2v4.1c0,1,.35,1.6,1.4,1.35v1C122.9,250.7,121.4,250.15,121.5,248.5Zm-4.65-.85a1.51,1.51,0,0,0,1.6,1.65c2-.15,3.15-1.45,3-3.7-2.15.1-4.6-.25-4.6,2.05"/><path id="I" d="M127.4,248c-.1,1.2.9,1.45,1.9,1.1v1.2c-1.65.5-3.5.25-3.5-1.95V242h-1.1V240.8h1.2l.45-2.15h1.05v2.15h1.75V242H127.4v6"/><path id="E-2" data-name="E" d="M130.65,238.75v-1.5h1.6v1.5Zm0,11.55v-9.5h1.6v9.5h-1.6"/><path id="C-2" data-name="C" d="M138.4,240.6c3.1,0,4.25,1.85,4.25,5s-1.35,4.95-4.3,4.95-4.15-1.95-4.2-4.95C134.15,242.25,135.55,240.6,138.4,240.6Zm-.05,8.7c2.2,0,2.65-1.55,2.65-3.75s-.4-3.75-2.55-3.75-2.65,1.6-2.65,3.75.5,3.7,2.55,3.75"/><path id="A-4" data-name="A" d="M149.25,240.6c4.45-.2,2.65,5.8,3,9.7h-1.6v-6.05c0-1.55-.4-2.45-2-2.4-3.6.1-2.2,5.1-2.45,8.45h-1.6l-.05-9.5h1.5a8.08,8.08,0,0,0,.1,1.6,3.16,3.16,0,0,1,3.05-1.8"/></g><path class="cls-2" d="M260,155.9H420v160H260Z"/><g id="c-3" data-name="c"><path id="B-3" data-name="B" d="M303.18,230.55a3.53,3.53,0,0,0-3.65-2.25c-2.95,0-4.35,2-4.35,4.95s1.45,5.05,4.45,5.05c2.15,0,3.1-1.2,3.9-2.6l1.35.7a5.51,5.51,0,0,1-5.35,3.3c-4,0-5.85-2.5-6-6.45-.3-5.2,4.95-7.65,9.35-5.55a4.05,4.05,0,0,1,1.95,2.3"/><path id="H-2" data-name="H" d="M311.23,231.35c-3.9-.8-2.65,4.55-2.85,8.15h-1.6l0-9.5h1.5a12.11,12.11,0,0,0,.1,1.95c.3-1.35,1.15-2.45,2.9-2v1.45"/><path id="J" d="M316.48,229.8c3.15,0,4.3,2.1,4.2,5.3h-6.75c0,2,.7,3.35,2.65,3.4a2.33,2.33,0,0,0,2.45-1.45l1.4.4c-.55,1.4-1.85,2.25-3.85,2.25-2.9,0-4.4-1.85-4.35-5S313.53,229.8,316.48,229.8Zm2.6,4a2.57,2.57,0,0,0-4.85-1.4,3.63,3.63,0,0,0-.3,1.4h5.15"/><path id="z-3" data-name="z" d="M328.53,237.7a3.71,3.71,0,0,1-3.4,2,2.67,2.67,0,0,1-2.9-2.85c-.05-3.2,3.15-3.15,6.25-3.15.15-1.75-.45-2.7-2.05-2.7-1.2.05-2.05.35-2.1,1.55l-1.65-.15c.25-1.85,1.65-2.6,3.8-2.6s3.6,1,3.6,3.2v4.1c-.05,1,.35,1.6,1.4,1.35v1C329.93,239.9,328.43,239.35,328.53,237.7Zm-4.65-.85a1.51,1.51,0,0,0,1.6,1.65c2-.15,3.15-1.45,3-3.7-2.15.1-4.6-.25-4.6,2"/><path id="I-2" data-name="I" d="M334.43,237.15c-.1,1.2.9,1.45,1.9,1.1v1.2c-1.65.5-3.5.25-3.5-1.95v-6.35h-1.1V230h1.2l.45-2.15h1.05V230h1.75v1.15h-1.75v6"/><path id="J-2" data-name="J" d="M341.48,229.8c3.15,0,4.3,2.1,4.2,5.3h-6.75c0,2,.7,3.35,2.65,3.4a2.33,2.33,0,0,0,2.45-1.45l1.4.4c-.55,1.4-1.85,2.25-3.85,2.25-2.9,0-4.4-1.85-4.35-5S338.53,229.8,341.48,229.8Zm2.6,4a2.57,2.57,0,0,0-4.85-1.4,3.63,3.63,0,0,0-.3,1.4h5.15"/></g><g id="d-2" data-name="d"><path id="x-2" data-name="x" d="M353,227.1c4.35.05,9.55-.75,9.55,3.75,0,3.9-3.85,4-7.9,3.8v4.85H353Zm1.65,6.25c2.85,0,6.2.55,6.2-2.5s-3.4-2.35-6.2-2.4v4.9"/><path id="y-2" data-name="y" d="M364.68,239.5V226.45h1.6V239.5h-1.6"/><path id="z-4" data-name="z" d="M374.48,237.7a3.71,3.71,0,0,1-3.4,2,2.67,2.67,0,0,1-2.9-2.85c-.05-3.2,3.15-3.15,6.25-3.15.15-1.75-.45-2.7-2.05-2.7-1.2.05-2.05.35-2.1,1.55l-1.65-.15c.25-1.85,1.65-2.6,3.8-2.6s3.6,1,3.6,3.2v4.1c0,1,.35,1.6,1.4,1.35v1C375.88,239.9,374.38,239.35,374.48,237.7Zm-4.65-.85a1.51,1.51,0,0,0,1.6,1.65c2.05-.15,3.15-1.45,3-3.7-2.15.1-4.6-.25-4.6,2"/><path id="A-5" data-name="A" d="M383.28,229.8c4.45-.2,2.65,5.8,3,9.7h-1.6v-6.05c0-1.55-.4-2.45-1.95-2.4-3.6.1-2.2,5.1-2.45,8.45h-1.6l-.05-9.5h1.5a8.08,8.08,0,0,0,.1,1.6,3.16,3.16,0,0,1,3-1.8"/></g><path class="cls-3" d="M182,235.9h58.5"/><path d="M182,236.9h-1v-2h1Z"/><path class="cls-4" d="M255.76,235.9l-14.26,4.64v-9.28Z"/><path class="cls-2" d="M500,155.9H660v160H500Z"/><g id="e-3" data-name="e"><path id="x-3" data-name="x" d="M536,227.1c4.35.05,9.55-.75,9.55,3.75,0,3.9-3.85,4-7.9,3.8v4.85H536Zm1.65,6.25c2.85,0,6.2.55,6.2-2.5s-3.4-2.35-6.2-2.4v4.9"/><path id="K" d="M551.83,231.05c-3.6,0-2.2,5.1-2.45,8.45h-1.6V226.45h1.6l0,5.15a3.16,3.16,0,0,1,3-1.8c4.45,0,2.65,5.8,3,9.7h-1.6v-6.05c.1-1.6-.4-2.45-1.95-2.4"/><path id="z-5" data-name="z" d="M563.58,237.7a3.71,3.71,0,0,1-3.4,2,2.67,2.67,0,0,1-2.9-2.85c0-3.2,3.15-3.15,6.25-3.15.15-1.75-.45-2.7-2-2.7-1.2.05-2.05.35-2.1,1.55l-1.65-.15c.25-1.85,1.65-2.6,3.8-2.6s3.6,1,3.6,3.2v4.1c0,1,.35,1.6,1.4,1.35v1C565,239.9,563.48,239.35,563.58,237.7Zm-4.65-.85a1.51,1.51,0,0,0,1.6,1.65c2.05-.15,3.15-1.45,3-3.7-2.15.1-4.6-.25-4.6,2"/><path id="L" d="M573.28,232.35c-.15-1.7-4.3-1.9-4.35,0,.75,2.65,5.75.6,6,4.5s-7.5,3.7-7.85.4l1.4-.25c.2,1.8,4.85,2.25,4.9,0-.5-2.8-5.65-.75-5.9-4.5-.2-2.85,4.1-3.15,6.1-2.1a2.51,2.51,0,0,1,1.2,1.75"/><path id="J-3" data-name="J" d="M580.53,229.8c3.15,0,4.3,2.1,4.2,5.3H578c0,2,.7,3.35,2.65,3.4a2.33,2.33,0,0,0,2.45-1.45l1.4.4c-.55,1.4-1.85,2.25-3.85,2.25-2.9,0-4.4-1.85-4.35-5S577.58,229.8,580.53,229.8Zm2.6,4a2.57,2.57,0,0,0-4.85-1.4,3.63,3.63,0,0,0-.3,1.4h5.15"/><path id="L-2" data-name="L" d="M592.28,232.35c-.15-1.7-4.3-1.9-4.35,0,.75,2.65,5.75.6,6,4.5s-7.5,3.7-7.85.4l1.4-.25c.2,1.8,4.85,2.25,4.9,0-.5-2.8-5.65-.75-5.9-4.5-.2-2.85,4.1-3.15,6.1-2.1a2.51,2.51,0,0,1,1.2,1.75"/></g><g id="f-2" data-name="f"><path id="M" d="M600.88,239.5v-1.35h3.2v-9.5l-2.8,1.95v-1.45l2.9-2.05h1.45v11.05h3v1.35h-7.8"/><path id="N" d="M610.33,235.4V234h4.4v1.4h-4.4"/><path id="O" d="M623.23,236.7v2.8h-1.5v-2.8h-5.85v-1.25l5.7-8.35h1.65v8.35H625v1.25Zm-1.5-7.8a78.68,78.68,0,0,1-4.4,6.55h4.4V228.9"/></g><path class="cls-3" d="M422,235.9h58.5"/><path d="M422,236.9h-1v-2h1Z"/><path class="cls-4" d="M495.76,235.9l-14.26,4.64v-9.28Z"/><path class="cls-2" d="M740,155.9H900v160H740Z"/><g id="g-2" data-name="g"><path id="x-4" data-name="x" d="M750.1,227.1c4.35.05,9.55-.75,9.55,3.75,0,3.9-3.85,4-7.9,3.8v4.85H750.1Zm1.65,6.25c2.85,0,6.2.55,6.2-2.5s-3.4-2.35-6.2-2.4v4.9"/><path id="K-2" data-name="K" d="M765.9,231.05c-3.6,0-2.2,5.1-2.45,8.45h-1.6V226.45h1.6l-.05,5.15a3.16,3.16,0,0,1,3.05-1.8c4.45,0,2.65,5.8,3,9.7h-1.6v-6.05c.1-1.6-.4-2.45-2-2.4"/><path id="z-6" data-name="z" d="M777.65,237.7a3.71,3.71,0,0,1-3.4,2,2.67,2.67,0,0,1-2.9-2.85c-.05-3.2,3.15-3.15,6.25-3.15.15-1.75-.45-2.7-2.05-2.7-1.2.05-2,.35-2.1,1.55l-1.65-.15c.25-1.85,1.65-2.6,3.8-2.6s3.6,1,3.6,3.2v4.1c-.05,1,.35,1.6,1.4,1.35v1C779.05,239.9,777.55,239.35,777.65,237.7Zm-4.65-.85a1.51,1.51,0,0,0,1.6,1.65c2-.15,3.15-1.45,3-3.7-2.15.1-4.6-.25-4.6,2"/><path id="L-3" data-name="L" d="M787.35,232.35c-.15-1.7-4.3-1.9-4.35,0,.75,2.65,5.75.6,6,4.5s-7.5,3.7-7.85.4l1.4-.25c.2,1.8,4.85,2.25,4.9,0-.5-2.8-5.65-.75-5.9-4.5-.2-2.85,4.1-3.15,6.1-2.1a2.51,2.51,0,0,1,1.2,1.75"/><path id="J-4" data-name="J" d="M794.6,229.8c3.15,0,4.3,2.1,4.2,5.3h-6.75c0,2,.7,3.35,2.65,3.4a2.33,2.33,0,0,0,2.45-1.45l1.4.4c-.55,1.4-1.85,2.25-3.85,2.25-2.9,0-4.4-1.85-4.35-5S791.65,229.8,794.6,229.8Zm2.6,4a2.57,2.57,0,0,0-4.85-1.4,3.63,3.63,0,0,0-.3,1.4h5.15"/></g><g id="h-3" data-name="h"><path id="P" d="M807.3,232.4c2.4-1.75,6.85-.4,6.55,3,.55,5-7.7,5.7-8.55,1.3l1.6-.2a2.41,2.41,0,0,0,2.6,1.85c1.75-.05,2.55-1.1,2.7-2.9.2-2.75-3.65-3.25-5-1.7H805.7l.4-6.7h7v1.35h-5.6"/></g><g id="i-3" data-name="i"><path id="Q" d="M824,243.25a12.48,12.48,0,0,1,0-16.8h1.55a12.62,12.62,0,0,0,0,16.8H824"/><path id="R" d="M835.8,239.5l-1.4-3.6h-5.65l-1.4,3.6H825.6l5-12.4h1.9l5,12.4Zm-1.9-4.95-2.35-6.15c-.6,2.25-1.55,4.1-2.3,6.15h4.65"/><path id="H-4" data-name="H" d="M843.25,231.35c-3.9-.8-2.65,4.55-2.85,8.15h-1.6l0-9.5h1.5a12.11,12.11,0,0,0,.1,1.95c.3-1.35,1.15-2.45,2.9-2v1.45"/><path id="S" d="M848.3,231.05c-2,0-2.4,1.65-2.4,3.65s.45,3.75,2.4,3.75a2,2,0,0,0,2.15-1.9l1.6.1a3.43,3.43,0,0,1-3.7,3c-3,0-3.8-2-4.1-4.95-.5-4.65,5-6.55,7.35-3.2a4,4,0,0,1,.35,1.1l-1.6.15a1.91,1.91,0,0,0-2.05-1.75"/><path id="K-3" data-name="K" d="M857.8,231.05c-3.6,0-2.2,5.1-2.45,8.45h-1.6V226.45h1.6l-.05,5.15a3.16,3.16,0,0,1,3.05-1.8c4.45,0,2.65,5.8,3,9.7h-1.6v-6.05c.1-1.6-.4-2.45-2-2.4"/><path id="E-4" data-name="E" d="M863.7,228v-1.5h1.6V228Zm0,11.55V230h1.6v9.5h-1.6"/><path id="T" d="M871.85,239.5H870L866.5,230h1.7l2.7,8.25,2.8-8.25h1.7"/><path id="J-5" data-name="J" d="M880.45,229.8c3.15,0,4.3,2.1,4.2,5.3H877.9c0,2,.7,3.35,2.65,3.4a2.33,2.33,0,0,0,2.45-1.45l1.4.4c-.55,1.4-1.85,2.25-3.85,2.25-2.9,0-4.4-1.85-4.35-5S877.5,229.8,880.45,229.8Zm2.6,4a2.57,2.57,0,0,0-4.85-1.4,3.63,3.63,0,0,0-.3,1.4h5.15"/><path id="U" d="M887.1,226.45a12.48,12.48,0,0,1,0,16.8h-1.55a12.63,12.63,0,0,0,0-16.8h1.55"/></g><path class="cls-3" d="M662,235.9h58.5"/><path d="M662,236.9h-1v-2h1Z"/><path class="cls-4" d="M735.76,235.9l-14.26,4.64v-9.28Z"/><path class="cls-3" d="M100,153.9l.08-3.75.3-4.6.46-4.5.65-4.37.82-4.28,1-4.2,1.14-4.14L105.8,120l1.5-4,1.68-4,1.87-4,2.08-4,2.3-4,2.5-4,2.78-4,3-4,3.33-4L130.55,80l4-4.1L139,71.74l4.85-4.18,5.35-4.23,5.9-4.27,6.48-4.32,7.17-4.34L176.65,46l8.77-4.35,9.7-4.32,10.7-4.24,11.8-4.1,12.93-3.9,14.13-3.62L260,18.26l16.42-2.78,17.4-2.2L312,11.76,330.62,11h18.84l18.66.78,18.17,1.53,17.4,2.2,16.4,2.77,15.3,3.25,14.13,3.63L462.46,29l11.8,4.1L485,37.38l9.68,4.3L503.41,46l7.9,4.35,7.2,4.35L525,59l5.88,4.28,5.34,4.23,4.85,4.18,4.4,4.14,4,4.1L553.14,84l3.33,4,3,4,2.77,4,2.52,4,2.28,4,2.07,4,1.88,4,1.68,4,1.5,4,1.34,4.07,1.15,4.14,1,4.2.78,4.08"/><path d="M101,153.9l0,1H99l0-1.05Z"/><path class="cls-4" d="M579.73,151.68l-5.8-13.83,9.23-.78Z"/><path class="cls-2" d="M500,515.9H660v160H500Z"/><g id="j-6" data-name="j"><path id="V" d="M547.25,577.7v4.6h6.9v1.4h-6.9v5H545.6V576.3h8.75v1.4h-7.1"/><path id="z-7" data-name="z" d="M562.1,586.9a3.71,3.71,0,0,1-3.4,2,2.67,2.67,0,0,1-2.9-2.85c0-3.2,3.15-3.15,6.25-3.15.15-1.75-.45-2.7-2-2.7-1.2,0-2,.35-2.1,1.55l-1.65-.15c.25-1.85,1.65-2.6,3.8-2.6s3.6,1,3.6,3.2v4.1c0,1,.35,1.6,1.4,1.35v1C563.5,589.1,562,588.55,562.1,586.9Zm-4.65-.85a1.51,1.51,0,0,0,1.6,1.65c2.05-.15,3.15-1.45,3-3.7-2.15.1-4.6-.25-4.6,2"/><path id="S-2" data-name="S" d="M569.85,580.25c-2,0-2.4,1.65-2.4,3.65s.45,3.75,2.4,3.75a2,2,0,0,0,2.15-1.9l1.6.1a3.43,3.43,0,0,1-3.7,3c-2.95,0-3.8-2-4.1-4.95-.5-4.65,5.05-6.55,7.35-3.2a4,4,0,0,1,.35,1.1l-1.6.15a1.91,1.91,0,0,0-2-1.75"/><path id="E-5" data-name="E" d="M575.25,577.15v-1.5h1.6v1.5Zm0,11.55v-9.5h1.6v9.5h-1.6"/><path id="y-3" data-name="y" d="M579.2,588.7V575.65h1.6V588.7h-1.6"/><path id="E-6" data-name="E" d="M583.15,577.15v-1.5h1.6v1.5Zm0,11.55v-9.5h1.6v9.5h-1.6"/><path id="I-4" data-name="I" d="M588.85,586.35c-.1,1.2.9,1.45,1.9,1.1v1.2c-1.65.5-3.5.25-3.5-1.95v-6.35h-1.1V579.2h1.2l.45-2.15h1.05v2.15h1.75v1.15h-1.75v6"/><path id="z-8" data-name="z" d="M598,586.9a3.71,3.71,0,0,1-3.4,2,2.67,2.67,0,0,1-2.9-2.85c0-3.2,3.15-3.15,6.25-3.15.15-1.75-.45-2.7-2-2.7-1.2,0-2.05.35-2.1,1.55l-1.65-.15c.25-1.85,1.65-2.6,3.8-2.6s3.6,1,3.6,3.2v4.1c0,1,.35,1.6,1.4,1.35v1C599.35,589.1,597.85,588.55,598,586.9Zm-4.65-.85a1.51,1.51,0,0,0,1.6,1.65c2.05-.15,3.15-1.45,3-3.7-2.15.1-4.6-.25-4.6,2"/><path id="I-5" data-name="I" d="M603.85,586.35c-.1,1.2.9,1.45,1.9,1.1v1.2c-1.65.5-3.5.25-3.5-1.95v-6.35h-1.1V579.2h1.2l.45-2.15h1.05v2.15h1.75v1.15h-1.75v6"/><path id="J-7" data-name="J" d="M610.9,579c3.15,0,4.3,2.1,4.2,5.3h-6.75c0,2,.7,3.35,2.65,3.4a2.33,2.33,0,0,0,2.45-1.45l1.4.4c-.55,1.4-1.85,2.25-3.85,2.25-2.9,0-4.4-1.85-4.35-5S608,579,610.9,579Zm2.6,4a2.57,2.57,0,0,0-4.85-1.4,3.63,3.63,0,0,0-.3,1.4h5.15"/></g><g id="k-4" data-name="k"><path id="R-2" data-name="R" d="M560.78,610.3l-1.4-3.6h-5.65l-1.4,3.6h-1.75l5-12.4h1.9l5,12.4Zm-1.9-4.95-2.35-6.15c-.6,2.25-1.55,4.1-2.3,6.15h4.65"/><path id="S-3" data-name="S" d="M567.33,601.85c-2,0-2.4,1.65-2.4,3.65s.45,3.75,2.4,3.75a2,2,0,0,0,2.15-1.9l1.6.1a3.43,3.43,0,0,1-3.7,3c-3,0-3.8-2-4.1-5-.5-4.65,5.05-6.55,7.35-3.2a4,4,0,0,1,.35,1.1l-1.6.15a1.91,1.91,0,0,0-2-1.75"/><path id="I-6" data-name="I" d="M574.48,608c-.1,1.2.9,1.45,1.9,1.1v1.2c-1.65.5-3.5.25-3.5-2V602h-1.1V600.8H573l.45-2.15h1.05v2.15h1.75V602h-1.75v6"/><path id="E-7" data-name="E" d="M577.73,598.75v-1.5h1.6v1.5Zm0,11.55v-9.5h1.6v9.5h-1.6"/><path id="C-4" data-name="C" d="M585.48,600.6c3.1-.05,4.25,1.85,4.25,4.95s-1.35,5-4.3,5-4.15-2-4.2-5C581.23,602.25,582.63,600.6,585.48,600.6Zm-.05,8.7c2.2.05,2.65-1.55,2.65-3.75s-.4-3.75-2.55-3.75-2.65,1.6-2.65,3.75.5,3.7,2.55,3.75"/><path id="A-6" data-name="A" d="M596.33,600.6c4.45-.2,2.65,5.8,3,9.7h-1.6v-6c0-1.55-.4-2.45-2-2.4-3.6.1-2.2,5.1-2.45,8.45h-1.6l-.05-9.5h1.5a8.08,8.08,0,0,0,.1,1.6,3.16,3.16,0,0,1,3.05-1.8"/><path id="L-4" data-name="L" d="M607.23,603.15c-.15-1.7-4.3-1.9-4.35,0,.75,2.65,5.75.6,6,4.5s-7.5,3.7-7.85.4l1.4-.25c.2,1.8,4.85,2.25,4.9,0-.5-2.8-5.65-.75-5.9-4.5-.2-2.85,4.1-3.15,6.1-2.1a2.51,2.51,0,0,1,1.2,1.75"/></g><path class="cls-3" d="M580,317.9V496.4"/><path d="M581,317.93h-2v-1h2Z"/><path class="cls-4" d="M580,511.66l-4.64-14.26h9.28Z"/><path class="cls-2" d="M740,515.9H900v160H740Z"/><g id="l-5" data-name="l"><path id="R-3" data-name="R" d="M779.3,567.1l-1.4-3.6h-5.65l-1.4,3.6H769.1l5-12.4h1.9l5,12.4Zm-1.9-5L775.05,556c-.6,2.25-1.55,4.1-2.3,6.15h4.65"/><path id="H-5" data-name="H" d="M786.75,559c-3.9-.8-2.65,4.55-2.85,8.15h-1.6l0-9.5h1.5a12.11,12.11,0,0,0,.1,1.95c.3-1.35,1.15-2.45,2.9-2V559"/><path id="J-8" data-name="J" d="M792,557.4c3.15,0,4.3,2.1,4.2,5.3h-6.75c0,2,.7,3.35,2.65,3.4a2.33,2.33,0,0,0,2.45-1.45l1.4.4c-.55,1.4-1.85,2.25-3.85,2.25-2.9,0-4.4-1.85-4.35-5S789.05,557.4,792,557.4Zm2.6,4.05a2.57,2.57,0,0,0-4.85-1.4,3.63,3.63,0,0,0-.3,1.4h5.15"/></g><g id="m-2" data-name="m"><path id="W" d="M811,557.6l-4.3,11a3.4,3.4,0,0,1-4,2.1v-1.2c1.95.3,2.65-1,3.2-2.5l-3.75-9.45h1.7l2.85,7.8,2.7-7.8H811"/><path id="C-5" data-name="C" d="M816,557.4c3.1,0,4.25,1.85,4.25,5s-1.35,4.95-4.3,4.95-4.15-1.95-4.2-4.95C811.75,559.05,813.15,557.4,816,557.4Zm0,8.7c2.2,0,2.65-1.55,2.65-3.75s-.4-3.75-2.55-3.75-2.65,1.6-2.65,3.75.5,3.7,2.55,3.75"/><path id="G-3" data-name="G" d="M825.2,567.3c-4.45.2-2.7-5.8-3.05-9.7h1.6v6c0,1.55.35,2.5,2,2.45,3.6-.1,2.25-5,2.5-8.45h1.55l0,9.5h-1.5a8.61,8.61,0,0,0-.1-1.65,3.12,3.12,0,0,1-3,1.85"/></g><g id="n-2" data-name="n"><path id="L-6" data-name="L" d="M842.75,560c-.15-1.7-4.3-1.9-4.35,0,.75,2.65,5.75.6,6,4.5s-7.5,3.7-7.85.4l1.4-.25c.2,1.8,4.85,2.25,4.9,0-.5-2.8-5.65-.75-5.9-4.5-.2-2.85,4.1-3.15,6.1-2.1a2.51,2.51,0,0,1,1.2,1.75"/><path id="G-4" data-name="G" d="M849.2,567.3c-4.45.2-2.7-5.8-3.05-9.7h1.6v6c0,1.55.35,2.5,2,2.45,3.6-.1,2.25-5,2.5-8.45h1.55l0,9.5h-1.5a8.61,8.61,0,0,0-.1-1.65,3.12,3.12,0,0,1-3,1.85"/><path id="H-6" data-name="H" d="M860.7,559c-3.9-.8-2.65,4.55-2.85,8.15h-1.6l0-9.5h1.5a12.11,12.11,0,0,0,.1,1.95c.3-1.35,1.15-2.45,2.9-2V559"/><path id="J-9" data-name="J" d="M866,557.4c3.15,0,4.3,2.1,4.2,5.3H863.4c0,2,.7,3.35,2.65,3.4a2.33,2.33,0,0,0,2.45-1.45l1.4.4c-.55,1.4-1.85,2.25-3.85,2.25-2.9,0-4.4-1.85-4.35-5S863,557.4,866,557.4Zm2.6,4.05a2.57,2.57,0,0,0-4.85-1.4,3.63,3.63,0,0,0-.3,1.4h5.15"/></g><g id="o-2" data-name="o"><path id="W-2" data-name="W" d="M783,579.2l-4.3,11a3.4,3.4,0,0,1-4,2.1v-1.2c2,.3,2.65-1,3.2-2.5l-3.75-9.45h1.7l2.85,7.8,2.7-7.8H783"/><path id="C-6" data-name="C" d="M788,579c3.1,0,4.25,1.85,4.25,5s-1.35,4.95-4.3,4.95-4.15-1.95-4.2-4.95C783.78,580.65,785.18,579,788,579Zm0,8.7c2.2,0,2.65-1.55,2.65-3.75s-.4-3.75-2.55-3.75-2.65,1.6-2.65,3.75.5,3.7,2.55,3.75"/><path id="G-5" data-name="G" d="M797.23,588.9c-4.45.2-2.7-5.8-3.05-9.7h1.6v6c0,1.55.35,2.5,2,2.45,3.6-.1,2.25-5,2.5-8.45h1.55l.05,9.5h-1.5a8.61,8.61,0,0,0-.1-1.65,3.12,3.12,0,0,1-3,1.85"/></g><g id="p-2" data-name="p"><path id="X-5" data-name="X" d="M818.33,588.7h-1.8l-2-8.2-2,8.2h-1.8l-2.7-9.5h1.6l1.95,8.2,2.15-8.2h1.7l2,8.2,2.1-8.2h1.55"/><path id="z-9" data-name="z" d="M828,586.9a3.71,3.71,0,0,1-3.4,2,2.67,2.67,0,0,1-2.9-2.85c-.05-3.2,3.15-3.15,6.25-3.15.15-1.75-.45-2.7-2.05-2.7-1.2,0-2,.35-2.1,1.55l-1.65-.15c.25-1.85,1.65-2.6,3.8-2.6s3.6,1,3.6,3.2v4.1c-.05,1,.35,1.6,1.4,1.35v1C829.43,589.1,827.93,588.55,828,586.9Zm-4.65-.85a1.51,1.51,0,0,0,1.6,1.65c2-.15,3.15-1.45,3-3.7-2.15.1-4.6-.25-4.6,2"/><path id="A-7" data-name="A" d="M836.83,579c4.45-.2,2.65,5.8,3,9.7h-1.6v-6.05c0-1.55-.4-2.45-2-2.4-3.6.1-2.2,5.1-2.45,8.45h-1.6l-.05-9.5h1.5a8.08,8.08,0,0,0,.1,1.6,3.16,3.16,0,0,1,3.05-1.8"/><path id="I-7" data-name="I" d="M843.93,586.35c-.1,1.2.9,1.45,1.9,1.1v1.2c-1.65.5-3.5.25-3.5-1.95v-6.35h-1.1V579.2h1.2l.45-2.15h1v2.15h1.75v1.15h-1.75v6"/></g><g id="q-2" data-name="q"><path id="I-8" data-name="I" d="M853.92,586.35c-.1,1.2.9,1.45,1.9,1.1v1.2c-1.65.5-3.5.25-3.5-1.95v-6.35h-1.1V579.2h1.2l.45-2.15h1v2.15h1.75v1.15h-1.75v6"/><path id="C-7" data-name="C" d="M861,579c3.1,0,4.25,1.85,4.25,5s-1.35,4.95-4.3,4.95-4.15-1.95-4.2-4.95C856.72,580.65,858.12,579,861,579Zm-.05,8.7c2.2,0,2.65-1.55,2.65-3.75s-.4-3.75-2.55-3.75-2.65,1.6-2.65,3.75.5,3.7,2.55,3.75"/></g><g id="r-4" data-name="r"><path id="Y-4" data-name="Y" d="M771,601.85c-3.35.15-1.9,5.25-2.2,8.45h-1.55v-6c0-1.45-.25-2.5-1.75-2.4-3.3.2-1.9,5.2-2.2,8.45h-1.55l0-9.5h1.5a8.08,8.08,0,0,0,.1,1.6c.5-2.2,4.95-2.5,5.35,0a3.07,3.07,0,0,1,2.9-1.8c4.25-.1,2.35,5.95,2.75,9.7h-1.55v-6c0-1.45-.25-2.45-1.75-2.4"/><path id="C-8" data-name="C" d="M780.48,600.6c3.1-.05,4.25,1.85,4.25,4.95s-1.35,5-4.3,5-4.15-2-4.2-5C776.23,602.25,777.63,600.6,780.48,600.6Zm-.05,8.7c2.2.05,2.65-1.55,2.65-3.75s-.4-3.75-2.55-3.75-2.65,1.6-2.65,3.75.5,3.7,2.55,3.75"/><path id="T-2" data-name="T" d="M790.88,610.3H789l-3.45-9.5h1.7l2.7,8.25,2.8-8.25h1.7"/><path id="J-10" data-name="J" d="M799.48,600.6c3.15,0,4.3,2.1,4.2,5.3h-6.75c0,2,.7,3.35,2.65,3.4a2.33,2.33,0,0,0,2.45-1.45l1.4.4c-.55,1.4-1.85,2.25-3.85,2.25-2.9,0-4.4-1.85-4.35-5S796.53,600.6,799.48,600.6Zm2.6,4a2.57,2.57,0,0,0-4.85-1.4,3.63,3.63,0,0,0-.3,1.4h5.15"/></g><g id="s-4" data-name="s"><path id="C-9" data-name="C" d="M814.47,600.6c3.1-.05,4.25,1.85,4.25,4.95s-1.35,5-4.3,5-4.15-2-4.2-5C810.22,602.25,811.62,600.6,814.47,600.6Zm-.05,8.7c2.2.05,2.65-1.55,2.65-3.75s-.4-3.75-2.55-3.75-2.65,1.6-2.65,3.75.5,3.7,2.55,3.75"/><path id="A-8" data-name="A" d="M825.32,600.6c4.45-.2,2.65,5.8,3,9.7h-1.6v-6c0-1.55-.4-2.45-2-2.4-3.6.1-2.2,5.1-2.45,8.45h-1.6l-.05-9.5h1.5a8.08,8.08,0,0,0,.1,1.6,3.16,3.16,0,0,1,3.05-1.8"/></g><g id="t-3" data-name="t"><path id="I-9" data-name="I" d="M837.42,608c-.1,1.2.9,1.45,1.9,1.1v1.2c-1.65.5-3.5.25-3.5-2V602h-1.1V600.8h1.2l.45-2.15h1v2.15h1.75V602h-1.75v6"/><path id="C-10" data-name="C" d="M844.47,600.6c3.1-.05,4.25,1.85,4.25,4.95s-1.35,5-4.3,5-4.15-2-4.2-5C840.22,602.25,841.62,600.6,844.47,600.6Zm-.05,8.7c2.2.05,2.65-1.55,2.65-3.75s-.4-3.75-2.55-3.75-2.65,1.6-2.65,3.75.5,3.7,2.55,3.75"/></g><g id="u-2" data-name="u"><path id="I-10" data-name="I" d="M857.42,608c-.1,1.2.9,1.45,1.9,1.1v1.2c-1.65.5-3.5.25-3.5-2V602h-1.1V600.8h1.2l.45-2.15h1v2.15h1.75V602h-1.75v6"/><path id="K-5" data-name="K" d="M864.77,601.85c-3.6,0-2.2,5.1-2.45,8.45h-1.6v-13h1.6l-.05,5.15a3.16,3.16,0,0,1,3.05-1.8c4.45,0,2.65,5.8,3,9.7h-1.6v-6c.1-1.6-.4-2.45-2-2.4"/><path id="J-11" data-name="J" d="M874.47,600.6c3.15,0,4.3,2.1,4.2,5.3h-6.75c0,2,.7,3.35,2.65,3.4a2.33,2.33,0,0,0,2.45-1.45l1.4.4c-.55,1.4-1.85,2.25-3.85,2.25-2.9,0-4.4-1.85-4.35-5S871.52,600.6,874.47,600.6Zm2.6,4a2.57,2.57,0,0,0-4.85-1.4,3.63,3.63,0,0,0-.3,1.4h5.15"/></g><g id="v-2" data-name="v"><path id="A-9" data-name="A" d="M776.85,622.2c4.45-.2,2.65,5.8,3,9.7h-1.6v-6c0-1.55-.4-2.45-2-2.4-3.6.1-2.2,5.1-2.45,8.45h-1.6l0-9.5h1.5a8.08,8.08,0,0,0,.1,1.6,3.16,3.16,0,0,1,3.05-1.8"/><path id="J-12" data-name="J" d="M786,622.2c3.15,0,4.3,2.1,4.2,5.3h-6.75c0,2,.7,3.35,2.65,3.4a2.33,2.33,0,0,0,2.45-1.45l1.4.4c-.55,1.4-1.85,2.25-3.85,2.25-2.9,0-4.4-1.85-4.35-5S783.05,622.2,786,622.2Zm2.6,4a2.57,2.57,0,0,0-4.85-1.4,3.63,3.63,0,0,0-.3,1.4h5.15"/><path id="Z-10" data-name="Z" d="M798.05,631.9,795.5,628l-2.6,3.9h-1.7l3.4-4.9-3.25-4.6h1.75l2.4,3.7,2.35-3.7h1.75l-3.2,4.6,3.4,4.9h-1.75"/><path id="I-11" data-name="I" d="M803,629.55c-.1,1.2.9,1.45,1.9,1.1v1.2c-1.65.5-3.5.25-3.5-2v-6.35h-1.1V622.4h1.2l.45-2.15H803v2.15h1.75v1.15H803v6"/></g><g id="w-3" data-name="w"><path id="aa" d="M815.75,622.2c2.75,0,3.5,2,3.5,4.9s-.8,4.9-3.5,5a3.07,3.07,0,0,1-3-1.7l0,5.25h-1.6l-.05-13.25h1.55l.1,1.5A3,3,0,0,1,815.75,622.2Zm-.4,8.7c2,0,2.25-1.7,2.25-3.75s-.3-3.65-2.25-3.7c-2.1,0-2.55,1.6-2.55,3.8s.5,3.65,2.55,3.65"/><path id="K-6" data-name="K" d="M825.3,623.45c-3.6,0-2.2,5.1-2.45,8.45h-1.6v-13h1.6L822.8,624a3.16,3.16,0,0,1,3.05-1.8c4.45,0,2.65,5.8,3,9.7h-1.6v-6c.1-1.6-.4-2.45-2-2.4"/><path id="z-11" data-name="z" d="M837.05,630.1a3.71,3.71,0,0,1-3.4,2,2.67,2.67,0,0,1-2.9-2.85c0-3.2,3.15-3.15,6.25-3.15.15-1.75-.45-2.7-2-2.7-1.2.05-2.05.35-2.1,1.55l-1.65-.15c.25-1.85,1.65-2.6,3.8-2.6s3.6,1,3.6,3.2v4.1c-.05,1,.35,1.6,1.4,1.35v1C838.45,632.3,837,631.75,837.05,630.1Zm-4.65-.85a1.51,1.51,0,0,0,1.6,1.65c2-.15,3.15-1.45,3-3.7-2.15.1-4.6-.25-4.6,2"/><path id="L-7" data-name="L" d="M846.75,624.75c-.15-1.7-4.3-1.9-4.35,0,.75,2.65,5.75.6,6,4.5s-7.5,3.7-7.85.4l1.4-.25c.2,1.8,4.85,2.25,4.9,0-.5-2.8-5.65-.75-5.9-4.5-.2-2.85,4.1-3.15,6.1-2.1a2.51,2.51,0,0,1,1.2,1.75"/><path id="J-13" data-name="J" d="M854,622.2c3.15,0,4.3,2.1,4.2,5.3h-6.75c0,2,.7,3.35,2.65,3.4a2.33,2.33,0,0,0,2.45-1.45l1.4.4c-.55,1.4-1.85,2.25-3.85,2.25-2.9,0-4.4-1.85-4.35-5S851.05,622.2,854,622.2Zm2.6,4a2.57,2.57,0,0,0-4.85-1.4,3.63,3.63,0,0,0-.3,1.4h5.15"/><path id="ab" d="M864.15,619.35c4.2,0,5.55,4.85,2.25,6.65a3.11,3.11,0,0,0-1.95,2.6H862.9c0-3.15,3.85-2.75,3.85-5.7,0-1.5-1-2.1-2.6-2.15a2.52,2.52,0,0,0-2.8,2.3l-1.6-.1C860.1,620.7,861.45,619.35,864.15,619.35Zm-1.3,12.55v-1.75h1.7v1.75h-1.7"/></g><path class="cls-3" d="M662,595.9h58.5"/><path d="M662,596.9h-1v-2h1Z"/><path class="cls-4" d="M735.76,595.9l-14.26,4.64v-9.28Z"/><path class="cls-3" d="M820,513.9v-98H622V335.4"/><path d="M821,514.9h-2v-1h2Z"/><path class="cls-4" d="M622,320.14l4.64,14.26h-9.28Z"/></svg>