<svg id="Layer_1" data-name="Layer 1" xmlns="http://www.w3.org/2000/svg" viewBox="0 0 1080 604.67"><defs><style>.cls-1,.cls-2{fill:#fff;}.cls-2{fill-opacity:0;stroke-opacity:0;}.cls-2,.cls-3,.cls-4{stroke:#000;}.cls-2,.cls-3,.cls-4,.cls-5,.cls-7{stroke-width:2px;}.cls-3,.cls-5{fill:none;}.cls-5,.cls-7{stroke:#b2b2b2;}.cls-6,.cls-7{fill:#b2b2b2;}</style></defs><title>users</title><path class="cls-1" d="M.38.38H1079.63v588H.38Z"/><path class="cls-2" d="M20,20H260v84.67H20Z"/><g id="a"><path id="k" d="M82.19,28.62c7.51.09,16.5-1.29,16.5,6.48C98.69,41.85,92,42,85,41.67v8.39H82.19ZM85,39.43c4.92,0,10.71,1,10.71-4.33C95.75,30,89.88,31,85,31v8.47"/><path id="l" d="M102.41,50.06V27.5h2.76V50.06h-2.76"/><path id="m" d="M119.35,46.94c-1.3,1.82-2.68,3.55-5.88,3.46s-5-1.81-5-4.92c-.09-5.54,5.44-5.45,10.8-5.45.26-3-.78-4.67-3.54-4.67-2.08.09-3.55.61-3.63,2.68l-2.86-.26c.44-3.19,2.86-4.49,6.57-4.49,3.89,0,6.22,1.73,6.22,5.53v7.09c-.08,1.73.61,2.76,2.42,2.33V50C121.77,50.75,119.17,49.8,119.35,46.94Zm-8-1.46a2.61,2.61,0,0,0,2.76,2.85c3.55-.26,5.45-2.51,5.19-6.4-3.72.17-8-.43-8,3.55"/><path id="n" d="M134.56,33.29c7.69-.35,4.58,10,5.18,16.77H137V39.6c0-2.68-.7-4.24-3.38-4.15-6.22.17-3.8,8.82-4.23,14.61H126.6l-.08-16.42h2.59a14.16,14.16,0,0,0,.17,2.76c.95-1.9,2.51-3,5.28-3.11"/><path id="n-2" data-name="n" d="M151.84,33.29c7.69-.35,4.58,10,5.18,16.77h-2.76V39.6c0-2.68-.69-4.24-3.37-4.15-6.22.17-3.8,8.82-4.24,14.61h-2.76l-.09-16.42h2.6a13.42,13.42,0,0,0,.17,2.76c1-1.9,2.5-3,5.27-3.11"/><path id="o" d="M161.09,30.09V27.5h2.76v2.59Zm0,20V33.64h2.76V50.06h-2.76"/><path id="n-3" data-name="n" d="M176,33.29c7.69-.35,4.58,10,5.19,16.77h-2.77V39.6c0-2.68-.69-4.24-3.37-4.15-6.22.17-3.8,8.82-4.23,14.61H168l-.09-16.42h2.6a13.42,13.42,0,0,0,.17,2.76c.95-1.9,2.51-3,5.27-3.11"/><path id="p" d="M198.42,33.64c-.86,10.8,3.54,25.32-9.51,22.55a4.94,4.94,0,0,1-3.8-3.71l2.77-.44c1.29,4.06,8.64,2.77,7.69-2.42V47a5.46,5.46,0,0,1-5.27,3.11c-4.67,0-5.88-3.54-5.88-8.29s1.38-8.39,6.14-8.47a5.54,5.54,0,0,1,5.09,3,26.66,26.66,0,0,1,.18-2.76Zm-7.17,14.51c3.11,0,4.32-2.76,4.32-6.3s-1.21-6.49-4.32-6.49c-3.37,0-4,2.94-4,6.49s.52,6.3,4,6.3"/></g><g id="b"><path id="q" d="M66.33,87.39l-2.42-6.22H54.14l-2.42,6.22h-3L57.43,66h3.28l8.56,21.43ZM63,78.83,59,68.2c-1,3.89-2.68,7.09-4,10.63h8"/><path id="r" d="M76.7,70.62a5.46,5.46,0,0,1,5.18,2.86l-.08-8.65h2.76l.09,22.56H82.06a24.87,24.87,0,0,0-.26-2.68c-.87,2-2.42,3-5.1,3-4.58,0-6-3.37-6-8.46C70.65,73.56,72.64,70.62,76.7,70.62Zm.78,2.08c-3.46,0-4,2.94-4,6.48s.52,6.39,3.89,6.39c3.63,0,4.41-2.76,4.41-6.56,0-3.63-.78-6.4-4.32-6.31"/><path id="s" d="M104.78,72.78C99,73,101.5,81.86,101,87.39H98.3V76.93c0-2.5-.43-4.32-3-4.15-5.71.35-3.29,9-3.8,14.61H88.8L88.71,71H91.3a14.12,14.12,0,0,0,.18,2.76c.86-3.8,8.55-4.32,9.24,0a5.32,5.32,0,0,1,5-3.11c7.35-.17,4.07,10.29,4.76,16.77h-2.68V76.93c0-2.5-.43-4.23-3-4.15"/><path id="o-2" data-name="o" d="M114.55,67.43v-2.6h2.76v2.6Zm0,20V71h2.76V87.39h-2.76"/><path id="n-4" data-name="n" d="M129.41,70.62c7.69-.34,4.58,10,5.19,16.77h-2.77V76.93c0-2.68-.69-4.23-3.37-4.15-6.22.18-3.8,8.82-4.23,14.61h-2.77L121.38,71H124a14.16,14.16,0,0,0,.17,2.76c1-1.9,2.51-3,5.27-3.11"/><path id="o-3" data-name="o" d="M138.66,67.43v-2.6h2.77v2.6Zm0,20V71h2.77V87.39h-2.77"/><path id="t" d="M155.08,75c-.26-2.94-7.43-3.28-7.52,0,1.3,4.58,9.94,1,10.29,7.78s-13,6.39-13.57.69l2.42-.43c.34,3.11,8.38,3.89,8.47,0-.87-4.84-9.77-1.3-10.2-7.78-.35-4.93,7.09-5.44,10.54-3.63a4.35,4.35,0,0,1,2.08,3"/><path id="u" d="M164.07,83.33c-.17,2.07,1.55,2.5,3.28,1.9V87.3c-2.85.87-6,.43-6-3.37V73h-1.9V71h2.08l.77-3.72h1.82V71h3v2h-3V83.33"/><path id="v" d="M177.46,73.3c-6.74-1.38-4.58,7.87-4.92,14.09h-2.77L169.69,71h2.59a20.1,20.1,0,0,0,.17,3.37c.52-2.33,2-4.24,5-3.54v2.5"/><path id="m-2" data-name="m" d="M190.08,84.28c-1.3,1.81-2.68,3.54-5.88,3.45s-5-1.81-5-4.92c-.09-5.53,5.45-5.45,10.8-5.45.26-3-.77-4.66-3.54-4.66-2.07.08-3.54.6-3.63,2.68L180,75.12c.43-3.2,2.85-4.5,6.57-4.5,3.89,0,6.22,1.73,6.22,5.53v7.09c-.09,1.73.6,2.77,2.42,2.33V87.3C192.5,88.08,189.91,87.13,190.08,84.28Zm-8-1.47a2.61,2.61,0,0,0,2.77,2.85c3.54-.26,5.44-2.51,5.18-6.39-3.71.17-8-.44-8,3.54"/><path id="u-2" data-name="u" d="M200.28,83.33c-.18,2.07,1.55,2.5,3.28,1.9V87.3c-2.85.87-6.05.43-6.05-3.37V73h-1.9V71h2.08l.77-3.72h1.82V71h3v2h-3V83.33"/><path id="w" d="M212.46,70.62c5.36-.08,7.35,3.2,7.35,8.56s-2.33,8.55-7.43,8.55-7.18-3.37-7.26-8.55C205.12,73.48,207.54,70.62,212.46,70.62Zm-.08,15c3.8.09,4.58-2.68,4.58-6.48s-.69-6.48-4.41-6.48S208,75.46,208,79.18s.86,6.39,4.41,6.48"/><path id="v-2" data-name="v" d="M231,73.3c-6.74-1.38-4.58,7.87-4.93,14.09h-2.76L223.18,71h2.59a22.47,22.47,0,0,0,.17,3.37c.52-2.33,2-4.24,5-3.54v2.5"/></g><path class="cls-2" d="M20,260H260v84.67H20Z"/><g id="c"><path id="x" d="M57.17,308.72V287.29H60v19.1h10.8v2.33H57.17"/><path id="w-2" data-name="w" d="M80.5,292c5.36-.09,7.35,3.19,7.35,8.55s-2.34,8.56-7.44,8.56-7.17-3.37-7.26-8.56C73.15,294.81,75.57,292,80.5,292Zm-.09,15c3.81.09,4.58-2.68,4.58-6.48S84.3,294,80.59,294,76,296.8,76,300.51s.86,6.4,4.4,6.48"/><path id="y" d="M97.44,294.12c-3.46,0-4.15,2.85-4.15,6.31s.78,6.48,4.15,6.48a3.44,3.44,0,0,0,3.71-3.29l2.77.18c-.52,3.19-2.68,5.27-6.4,5.27-5.09,0-6.56-3.55-7.08-8.56-.87-8,8.73-11.32,12.7-5.53a7.16,7.16,0,0,1,.61,1.9l-2.77.26a3.3,3.3,0,0,0-3.54-3"/><path id="m-3" data-name="m" d="M116.88,305.61c-1.29,1.82-2.68,3.54-5.87,3.46s-5-1.82-5-4.93c-.08-5.53,5.45-5.44,10.81-5.44.26-3-.78-4.67-3.55-4.67-2.07.09-3.54.61-3.63,2.68l-2.85-.26c.43-3.2,2.85-4.49,6.57-4.49,3.89,0,6.22,1.73,6.22,5.53v7.08c-.08,1.73.61,2.77,2.42,2.34v1.73C119.3,309.41,116.71,308.46,116.88,305.61Zm-8-1.47a2.6,2.6,0,0,0,2.76,2.85c3.54-.26,5.45-2.5,5.19-6.39-3.72.17-8-.43-8,3.54"/><path id="l-2" data-name="l" d="M124.06,308.72V286.17h2.76v22.55h-2.76"/></g><g id="d"><path id="q-2" data-name="q" d="M155.17,308.72l-2.42-6.22H143l-2.42,6.22h-3l8.73-21.43h3.28l8.55,21.43Zm-3.29-8.55-4.06-10.63c-1,3.89-2.68,7.08-4,10.63h8"/><path id="r-2" data-name="r" d="M165.54,292a5.45,5.45,0,0,1,5.18,2.85l-.08-8.64h2.76l.09,22.55H170.9a25.13,25.13,0,0,0-.26-2.68c-.87,2-2.42,3-5.1,3-4.58,0-6-3.37-6-8.47C159.49,294.9,161.48,292,165.54,292Zm.77,2.07c-3.45,0-4,2.94-4,6.48s.52,6.4,3.89,6.4c3.63,0,4.41-2.77,4.41-6.57,0-3.63-.78-6.4-4.33-6.31"/><path id="s-2" data-name="s" d="M193.62,294.12c-5.79.26-3.28,9.07-3.8,14.6h-2.68V298.27c0-2.51-.43-4.33-3-4.15-5.71.34-3.29,9-3.81,14.6h-2.67l-.09-16.42h2.59a15,15,0,0,0,.17,2.77c.87-3.8,8.56-4.32,9.25,0a5.29,5.29,0,0,1,5-3.11c7.35-.18,4.07,10.28,4.76,16.76h-2.68V298.27c0-2.51-.43-4.24-3-4.15"/><path id="o-4" data-name="o" d="M203.39,288.76v-2.59h2.76v2.59Zm0,20V292.3h2.76v16.42h-2.76"/><path id="n-5" data-name="n" d="M218.25,292c7.69-.35,4.58,10,5.19,16.76h-2.77V298.27c0-2.68-.69-4.24-3.37-4.15-6.22.17-3.8,8.81-4.23,14.6H210.3l-.08-16.42h2.59a14.21,14.21,0,0,0,.17,2.77c1-1.9,2.51-3,5.27-3.11"/></g><path class="cls-2" d="M20,500H260v84.67H20Z"/><g id="e"><path id="z" d="M77,548.72V527.29H93.2v2.42H79.9v6.83H92.34v2.33H79.9v7.52h14v2.33H77"/><path id="n-6" data-name="n" d="M105.3,532c7.69-.35,4.58,10,5.19,16.76h-2.77V538.27c0-2.68-.69-4.24-3.37-4.15-6.22.17-3.8,8.81-4.23,14.6H97.35l-.08-16.42h2.59a13.47,13.47,0,0,0,.17,2.77c1-1.9,2.51-3,5.27-3.11"/><path id="r-3" data-name="r" d="M119.82,532a5.48,5.48,0,0,1,5.19,2.85l-.09-8.64h2.77l.08,22.55h-2.59a22.77,22.77,0,0,0-.26-2.68c-.86,2-2.42,3-5.1,3-4.58,0-6-3.37-6-8.47C113.77,534.9,115.76,532,119.82,532Zm.78,2.07c-3.46,0-4,2.94-4,6.48s.52,6.4,3.89,6.4c3.63,0,4.41-2.77,4.41-6.57,0-3.63-.78-6.4-4.32-6.31"/><path id="A-2" data-name="A" d="M131.14,541.64v-2.42h7.61v2.42h-7.61"/><path id="B-2" data-name="B" d="M160.09,540.69c-.08,5.61-3.45,8.38-9,8.38-5.27,0-8.64-2.77-8.64-8.13V527.29h2.85c.7,7.69-2.85,19.36,5.79,19.36,8.82,0,5.54-11.5,6.14-19.36h2.85v13.4"/><path id="t-2" data-name="t" d="M174.09,536.36c-.26-2.93-7.43-3.28-7.52,0,1.3,4.58,9.94,1,10.29,7.78s-13,6.4-13.57.69l2.42-.43c.35,3.11,8.38,3.89,8.47,0-.87-4.84-9.77-1.3-10.2-7.78-.34-4.92,7.09-5.44,10.54-3.63a4.37,4.37,0,0,1,2.08,3"/><path id="C-2" data-name="C" d="M186.62,532c5.45,0,7.44,3.63,7.26,9.16H182.22c0,3.45,1.21,5.79,4.58,5.87a4,4,0,0,0,4.23-2.5l2.42.69c-.95,2.42-3.2,3.89-6.65,3.89-5,0-7.61-3.2-7.52-8.64C179.36,535.15,181.52,532,186.62,532Zm4.5,7c.52-5.19-6.57-6.66-8.39-2.42a6.45,6.45,0,0,0-.51,2.42h8.9"/><path id="v-3" data-name="v" d="M205.12,534.64c-6.74-1.39-4.58,7.86-4.93,14.08h-2.76l-.09-16.42h2.59a22.47,22.47,0,0,0,.17,3.37c.52-2.33,2-4.23,5-3.54v2.51"/></g><path class="cls-2" d="M820,20h240v84.67H820Z"/><g id="a-3" data-name="a"><path id="k-2" data-name="k" d="M882.19,28.62c7.51.09,16.5-1.29,16.5,6.48,0,6.75-6.65,6.92-13.65,6.57v8.39h-2.85ZM885,39.43c4.92,0,10.71,1,10.71-4.33C895.75,30,889.88,31,885,31v8.47"/><path id="l-3" data-name="l" d="M902.41,50.06V27.5h2.76V50.06h-2.76"/><path id="m-4" data-name="m" d="M919.35,46.94c-1.3,1.82-2.68,3.55-5.88,3.46s-5-1.81-5-4.92c-.09-5.54,5.44-5.45,10.8-5.45.26-3-.78-4.67-3.54-4.67-2.08.09-3.55.61-3.63,2.68l-2.86-.26c.44-3.19,2.86-4.49,6.57-4.49,3.89,0,6.22,1.73,6.22,5.53v7.09c-.08,1.73.61,2.76,2.42,2.33V50C921.77,50.75,919.17,49.8,919.35,46.94Zm-8-1.46a2.61,2.61,0,0,0,2.76,2.85c3.55-.26,5.45-2.51,5.19-6.4-3.72.17-8-.43-8,3.55"/><path id="n-7" data-name="n" d="M934.56,33.29c7.69-.35,4.58,10,5.18,16.77H937V39.6c0-2.68-.7-4.24-3.38-4.15-6.22.17-3.8,8.82-4.23,14.61H926.6l-.08-16.42h2.59a14.16,14.16,0,0,0,.17,2.76c1-1.9,2.51-3,5.28-3.11"/><path id="n-8" data-name="n" d="M951.84,33.29c7.69-.35,4.58,10,5.18,16.77h-2.76V39.6c0-2.68-.69-4.24-3.37-4.15-6.22.17-3.8,8.82-4.24,14.61h-2.76l-.09-16.42h2.6a13.42,13.42,0,0,0,.17,2.76c.95-1.9,2.5-3,5.27-3.11"/><path id="o-5" data-name="o" d="M961.09,30.09V27.5h2.76v2.59Zm0,20V33.64h2.76V50.06h-2.76"/><path id="n-9" data-name="n" d="M976,33.29c7.69-.35,4.58,10,5.19,16.77h-2.77V39.6c0-2.68-.69-4.24-3.37-4.15-6.22.17-3.8,8.82-4.23,14.61H968l-.09-16.42h2.6a13.42,13.42,0,0,0,.17,2.76c1-1.9,2.51-3,5.27-3.11"/><path id="p-2" data-name="p" d="M998.42,33.64c-.86,10.8,3.54,25.32-9.51,22.55a4.94,4.94,0,0,1-3.8-3.71l2.77-.44c1.29,4.06,8.64,2.77,7.69-2.42V47a5.46,5.46,0,0,1-5.27,3.11c-4.67,0-5.88-3.54-5.88-8.29s1.38-8.39,6.14-8.47a5.54,5.54,0,0,1,5.09,3,26.66,26.66,0,0,1,.18-2.76Zm-7.17,14.51c3.11,0,4.32-2.76,4.32-6.3s-1.21-6.49-4.32-6.49c-3.37,0-4,2.94-4,6.49s.52,6.3,4,6.3"/></g><g id="f"><path id="D-2" data-name="D" d="M866,71.92c-.86-2.42-3-3.89-6.3-3.89-5.1,0-7.52,3.46-7.52,8.56s2.5,8.72,7.69,8.72c3.71,0,5.36-2.07,6.74-4.49L869,82a9.5,9.5,0,0,1-9.24,5.7c-6.92,0-10.12-4.32-10.46-11.14-.52-9,8.55-13.23,16.16-9.6a7,7,0,0,1,3.37,4"/><path id="w-3" data-name="w" d="M878.73,70.62c5.36-.08,7.34,3.2,7.34,8.56s-2.33,8.55-7.43,8.55-7.17-3.37-7.26-8.55C871.38,73.48,873.8,70.62,878.73,70.62Zm-.09,15c3.8.09,4.58-2.68,4.58-6.48s-.69-6.48-4.41-6.48-4.58,2.76-4.58,6.48.87,6.39,4.41,6.48"/><path id="n-10" data-name="n" d="M897.48,70.62c7.69-.34,4.58,10,5.19,16.77H899.9V76.93c0-2.68-.69-4.23-3.37-4.15-6.22.18-3.8,8.82-4.23,14.61h-2.77L889.44,71H892a13.42,13.42,0,0,0,.17,2.76c.95-1.9,2.51-3,5.27-3.11"/><path id="E-2" data-name="E" d="M913.38,67.17c-2.68-.78-3.63.86-3.28,3.8h3.28v2H910.1V87.39h-2.68V73h-2.33V71h2.33c-.61-4.49,1.47-7.09,6-5.88v2.08"/><path id="o-6" data-name="o" d="M915.37,67.43v-2.6h2.77v2.6Zm0,20V71h2.77V87.39h-2.77"/><path id="p-3" data-name="p" d="M935.42,71c-.86,10.8,3.54,25.32-9.51,22.55a4.91,4.91,0,0,1-3.8-3.71l2.77-.43c1.29,4.06,8.64,2.76,7.69-2.42v-2.6a5.47,5.47,0,0,1-5.27,3.12c-4.67,0-5.88-3.55-5.88-8.3s1.38-8.38,6.14-8.47a5.54,5.54,0,0,1,5.09,3,26.84,26.84,0,0,1,.18-2.76Zm-7.17,14.52c3.11,0,4.32-2.77,4.32-6.31s-1.21-6.48-4.32-6.48c-3.37,0-4,2.94-4,6.48s.52,6.31,4,6.31"/><path id="F-2" data-name="F" d="M944.67,87.73c-7.69.35-4.67-10-5.27-16.76h2.76V81.34c0,2.68.61,4.32,3.37,4.23,6.22-.17,3.89-8.72,4.32-14.6h2.68l.09,16.42H950a14.28,14.28,0,0,0-.17-2.85,5.38,5.38,0,0,1-5.18,3.19"/><path id="v-4" data-name="v" d="M964.54,73.3c-6.74-1.38-4.58,7.87-4.92,14.09h-2.77L956.77,71h2.59a20.1,20.1,0,0,0,.17,3.37c.52-2.33,2-4.24,5-3.54v2.5"/><path id="m-5" data-name="m" d="M977.16,84.28c-1.3,1.81-2.68,3.54-5.88,3.45s-5-1.81-5-4.92c-.08-5.53,5.45-5.45,10.8-5.45.26-3-.77-4.66-3.54-4.66-2.07.08-3.54.6-3.63,2.68l-2.85-.26c.43-3.2,2.85-4.5,6.57-4.5,3.89,0,6.22,1.73,6.22,5.53v7.09c-.09,1.73.6,2.77,2.42,2.33V87.3C979.58,88.08,977,87.13,977.16,84.28Zm-8-1.47a2.61,2.61,0,0,0,2.77,2.85c3.54-.26,5.44-2.51,5.18-6.39-3.71.17-8-.44-8,3.54"/><path id="u-3" data-name="u" d="M987.36,83.33c-.17,2.07,1.55,2.5,3.28,1.9V87.3c-2.85.87-6,.43-6-3.37V73h-1.9V71h2.08l.77-3.72h1.82V71h3v2h-3V83.33"/><path id="o-7" data-name="o" d="M993,67.43v-2.6h2.76v2.6Zm0,20V71h2.76V87.39H993"/><path id="w-4" data-name="w" d="M1006.37,70.62c5.36-.08,7.35,3.2,7.35,8.56s-2.34,8.55-7.44,8.55-7.17-3.37-7.26-8.55C999,73.48,1001.44,70.62,1006.37,70.62Zm-.09,15c3.81.09,4.58-2.68,4.58-6.48s-.69-6.48-4.4-6.48-4.58,2.76-4.58,6.48.86,6.39,4.4,6.48"/><path id="n-11" data-name="n" d="M1025.12,70.62c7.69-.34,4.58,10,5.19,16.77h-2.77V76.93c0-2.68-.69-4.23-3.37-4.15-6.22.18-3.8,8.82-4.23,14.61h-2.77L1017.09,71h2.59a14.16,14.16,0,0,0,.17,2.76c.95-1.9,2.51-3,5.27-3.11"/></g><path class="cls-3" d="M261,62.34H801.5"/><path d="M261,63.34h-1v-2h1Z"/><path class="cls-4" d="M816.78,62.34,802.48,67v-9.3Z"/><path class="cls-2" d="M820,260h240v84.67H820Z"/><g id="g"><path id="k-3" data-name="k" d="M837.33,287.29c7.52.09,16.51-1.3,16.51,6.48,0,6.74-6.65,6.92-13.65,6.57v8.38h-2.86Zm2.86,10.8c4.92,0,10.71,1,10.71-4.32,0-5.1-5.88-4.06-10.71-4.15v8.47"/><path id="l-4" data-name="l" d="M857.56,308.72V286.17h2.76v22.55h-2.76"/><path id="m-6" data-name="m" d="M874.49,305.61c-1.29,1.82-2.68,3.54-5.87,3.46s-5-1.82-5-4.93c-.08-5.53,5.45-5.44,10.81-5.44.26-3-.78-4.67-3.55-4.67-2.07.09-3.54.61-3.63,2.68l-2.85-.26c.43-3.2,2.85-4.49,6.57-4.49,3.89,0,6.22,1.73,6.22,5.53v7.08c-.08,1.73.61,2.77,2.42,2.34v1.73C876.91,309.41,874.32,308.46,874.49,305.61Zm-8-1.47a2.6,2.6,0,0,0,2.76,2.85c3.55-.26,5.45-2.5,5.19-6.39-3.72.17-7.95-.43-7.95,3.54"/><path id="n-12" data-name="n" d="M889.7,292c7.7-.35,4.58,10,5.19,16.76h-2.77V298.27c0-2.68-.69-4.24-3.37-4.15-6.22.17-3.8,8.81-4.23,14.6h-2.77l-.08-16.42h2.59a14.21,14.21,0,0,0,.17,2.77c1-1.9,2.51-3,5.27-3.11"/><path id="n-13" data-name="n" d="M907,292c7.69-.35,4.58,10,5.18,16.76h-2.76V298.27c0-2.68-.69-4.24-3.37-4.15-6.23.17-3.81,8.81-4.24,14.6H899L899,292.3h2.59a14.17,14.17,0,0,0,.18,2.77c.95-1.9,2.5-3,5.27-3.11"/><path id="o-8" data-name="o" d="M916.23,288.76v-2.59H919v2.59Zm0,20V292.3H919v16.42h-2.77"/><path id="n-14" data-name="n" d="M931.1,292c7.69-.35,4.58,10,5.18,16.76h-2.76V298.27c0-2.68-.69-4.24-3.37-4.15-6.22.17-3.8,8.81-4.24,14.6h-2.76l-.09-16.42h2.59a14.17,14.17,0,0,0,.18,2.77c.95-1.9,2.5-3,5.27-3.11"/><path id="p-4" data-name="p" d="M953.57,292.3c-.87,10.8,3.54,25.32-9.51,22.56a4.92,4.92,0,0,1-3.8-3.72l2.76-.43c1.3,4.06,8.65,2.77,7.7-2.42V305.7a5.48,5.48,0,0,1-5.28,3.11c-4.66,0-5.87-3.54-5.87-8.3s1.38-8.38,6.13-8.47a5.57,5.57,0,0,1,5.1,3,26.86,26.86,0,0,1,.18-2.77Zm-7.17,14.52c3.11,0,4.32-2.76,4.32-6.31S949.51,294,946.4,294c-3.38,0-4,2.94-4,6.48s.52,6.31,4,6.31"/></g><g id="h"><path id="z-2" data-name="z" d="M966.79,308.72V287.29H983v2.42H969.64v6.83h12.45v2.33H969.64v7.52h14v2.33H966.79"/><path id="r-4" data-name="r" d="M992.28,292a5.48,5.48,0,0,1,5.19,2.85l-.09-8.64h2.77l.08,22.55h-2.59a22.77,22.77,0,0,0-.26-2.68c-.86,2-2.42,3-5.1,3-4.58,0-6-3.37-6-8.47C986.23,294.9,988.22,292,992.28,292Zm.78,2.07c-3.46,0-4,2.94-4,6.48s.51,6.4,3.89,6.4c3.62,0,4.4-2.77,4.4-6.57,0-3.63-.78-6.4-4.32-6.31"/><path id="o-9" data-name="o" d="M1004.3,288.76v-2.59h2.76v2.59Zm0,20V292.3h2.76v16.42h-2.76"/><path id="u-4" data-name="u" d="M1014.15,304.66c-.17,2.07,1.55,2.51,3.28,1.9v2.08c-2.85.86-6,.43-6-3.37v-11h-1.9v-2h2.08l.77-3.71h1.82v3.71h3v2h-3v10.37"/><path id="w-5" data-name="w" d="M1026.33,292c5.36-.09,7.35,3.19,7.35,8.55s-2.33,8.56-7.43,8.56-7.18-3.37-7.26-8.56C1019,294.81,1021.41,292,1026.33,292Zm-.08,15c3.8.09,4.58-2.68,4.58-6.48s-.69-6.48-4.41-6.48-4.58,2.77-4.58,6.48.86,6.4,4.41,6.48"/><path id="v-5" data-name="v" d="M1044.83,294.64c-6.74-1.39-4.58,7.86-4.93,14.08h-2.76l-.09-16.42h2.59a22.47,22.47,0,0,0,.17,3.37c.52-2.33,2-4.23,5-3.54v2.51"/></g><path class="cls-2" d="M820,500h240v84.67H820Z"/><g id="i"><path id="G-2" data-name="G" d="M886.46,548.72l.18-18.84c-2,6.57-4.67,12.53-6.92,18.84h-2l-7-18.84.09,18.84h-2.51V527.29h3.81l6.65,18.23c1.82-6.48,4.41-12.09,6.57-18.23h3.72v21.43h-2.6"/><path id="H-2" data-name="H" d="M907,532.3l-7.43,19.1c-1.21,2.42-3.2,4.41-7,3.63V553c3.37.52,4.58-1.73,5.53-4.32l-6.48-16.34h2.94l4.92,13.48,4.67-13.48H907"/></g><g id="j"><path id="I-2" data-name="I" d="M929.59,537.4c3,.43,5.27,2,5.27,5.27,0,7.52-9.16,5.88-16.51,6.05V527.29c6.57.26,15.3-1.47,15.3,5.19C933.65,535.33,932,536.8,929.59,537.4Zm-8.39-.95c4.32-.09,9.51.78,9.51-3.63,0-4.06-5.44-3.11-9.51-3.2Zm0,9.94c4.76-.17,10.72,1.21,10.72-3.89,0-4.84-6-3.63-10.72-3.8v7.69"/><path id="F-3" data-name="F" d="M943.76,549.07c-7.69.34-4.67-10-5.27-16.77h2.76v10.37c0,2.68.61,4.32,3.37,4.24,6.23-.18,3.89-8.73,4.32-14.61h2.68l.09,16.42h-2.59a15.08,15.08,0,0,0-.18-2.85,5.41,5.41,0,0,1-5.18,3.2"/><path id="r-5" data-name="r" d="M961.13,532a5.45,5.45,0,0,1,5.18,2.85l-.08-8.64H969l.09,22.55h-2.59a25.13,25.13,0,0,0-.26-2.68c-.87,2-2.42,3-5.1,3-4.58,0-6-3.37-6-8.47C955.08,534.9,957.07,532,961.13,532Zm.78,2.07c-3.46,0-4,2.94-4,6.48s.52,6.4,3.89,6.4c3.63,0,4.41-2.77,4.41-6.57,0-3.63-.78-6.4-4.32-6.31"/><path id="p-5" data-name="p" d="M986.36,532.3c-.86,10.8,3.55,25.32-9.5,22.56a4.91,4.91,0,0,1-3.8-3.72l2.76-.43c1.3,4.06,8.64,2.77,7.69-2.42V545.7a5.46,5.46,0,0,1-5.27,3.11c-4.67,0-5.88-3.54-5.88-8.3s1.39-8.38,6.14-8.47a5.57,5.57,0,0,1,5.1,3c.09-.87,0-2,.17-2.77Zm-7.17,14.52c3.11,0,4.32-2.76,4.32-6.31S982.3,534,979.19,534c-3.37,0-4,2.94-4,6.48s.51,6.31,4,6.31"/><path id="C-3" data-name="C" d="M997,532c5.45,0,7.44,3.63,7.26,9.16H992.59c0,3.45,1.21,5.79,4.58,5.87a4,4,0,0,0,4.23-2.5l2.42.69c-1,2.42-3.2,3.89-6.65,3.89-5,0-7.61-3.2-7.52-8.64C989.73,535.15,991.9,532,997,532Zm4.5,7c.52-5.19-6.57-6.66-8.39-2.42a6.45,6.45,0,0,0-.51,2.42h8.9"/><path id="u-5" data-name="u" d="M1010.73,544.66c-.17,2.07,1.56,2.51,3.29,1.9v2.08c-2.85.86-6,.43-6-3.37v-11h-1.9v-2h2.07l.78-3.71h1.81v3.71h3v2h-3v10.37"/></g><path class="cls-3" d="M261,302.34H801.5"/><path d="M261,303.34h-1v-2h1Z"/><path class="cls-4" d="M816.78,302.34,802.5,307v-9.28Z"/><path class="cls-5" d="M261,98.62,802.28,261"/><path class="cls-6" d="M261.28,97.68l-.58,1.9-.7-.2v-2.1Z"/><path class="cls-7" d="M816.9,265.41l-15,.34,2.67-8.88Z"/><path class="cls-3" d="M261,542.34H801.5"/><path d="M261,543.34h-1v-2h1Z"/><path class="cls-4" d="M816.78,542.34,802.5,547v-9.28Z"/><path class="cls-5" d="M211.42,105.18l642.16,385.3"/><path class="cls-6" d="M210.92,106.05l-2.3-1.38h3.13Z"/><path class="cls-7" d="M866.68,498.34,852.05,495l4.77-8Z"/><path class="cls-5" d="M141,344.91,802,508.28"/><path class="cls-6" d="M140.76,345.88l-3.9-1,0-.25h4.15Z"/><path class="cls-7" d="M816.86,511.94l-15,1.08,2.22-9Z"/></svg>