<svg id="Layer_1" data-name="Layer 1" xmlns="http://www.w3.org/2000/svg" viewBox="0 0 1344.02 1652.78"><defs><style>.cls-1,.cls-2,.cls-5{fill:#fff;}.cls-2,.cls-5{fill-opacity:0;}.cls-2,.cls-3,.cls-4{stroke:#000;}.cls-2{stroke-opacity:0;}.cls-2,.cls-3,.cls-4,.cls-7{stroke-width:2px;}.cls-3,.cls-6,.cls-7{fill:none;}.cls-6{stroke:#999;stroke-width:5px;}.cls-7{stroke:#ccc;}</style></defs><title>user_input</title><path class="cls-1" d="M8.56-20h1326.9V1697.16H8.56Z"/><path class="cls-2" d="M222.22,20h240V94h-240Z"/><g id="a"><path id="w" d="M240.74,30.93c13.78.14,30.52-2.37,30.22,11.7-.15,11.11-10.22,13-22.52,12.15V67.67h-7.7Zm7.7,17.92c7,0,14.82,1,14.82-6.07s-8-5.78-14.82-5.78V48.85"/><path id="x" d="M289.63,44.41c-8.74,0-5,14.37-5.78,23.26h-7.41V29h7.41l-.15,16.15c1.78-3.85,4.15-6.08,9-6.22,12.74-.15,8.59,16.74,9.33,28.74h-7.4c-1-8.45,3.4-23.26-5-23.26"/><path id="y" d="M324.89,62.63c-2.37,2.81-4.45,5.78-9.48,5.63-5.49-.15-8.6-3-8.6-8.59-.14-8.89,8.15-9.34,17.19-9,.15-3.85-.45-7-4.15-7-2.67.14-3.85,1.33-4.15,4l-7.7-.3c1-5.63,5.33-8.59,12.15-8.44s11,3.26,11.11,10.07l.15,12.15c-.15,2.07,1.77,2.66,3.7,2.22v4C330.67,68.56,324.59,68.11,324.89,62.63Zm-7.11.44c4.29,0,6.37-3.55,6.22-8.44-4.74,0-9.78-.44-9.63,4.44,0,2.52,1.18,4,3.41,4"/><path id="z" d="M355.11,47.22c.15-4.29-10.37-5-10.52-.59,2.22,6.81,17.48,1,17.63,12.74.15,12.3-24.3,11.26-25.48,1.33l6.37-1c.59,2.81,3,3.7,6.52,3.7,4.89,1.19,8.44-4.44,3.55-6.07-6.37-2.08-15.11-1.63-15.4-9.78-.3-11.85,22.81-11,23.85-1"/><path id="A-2" data-name="A" d="M391.85,60.56c-1.93,4.44-5.48,7.85-12.15,7.7-8.89-.3-13.18-5.48-13.18-14.82S371,38.93,379.85,38.93c9.19,0,12.3,6.66,12.45,16H374.22c0,4.59,1.19,8.14,5.78,8.29,2.67,0,4.44-1,5-3.26Zm-6.67-10.23c.74-6.81-8.44-9.33-10.37-3.11a9.89,9.89,0,0,0-.59,3.11h11"/></g><g id="b"><path id="B-2" data-name="B" d="M438.37,67.67l-3.26-9.34H421.18l-3.26,9.34h-7.7l13.33-36.74h9l13.33,36.74Zm-4.89-15.11-5.33-16c-1.48,5.63-3.56,10.66-5.34,16h10.67"/></g><path class="cls-2" d="M842.22,20h240V94h-240Z"/><g id="a-3" data-name="a"><path id="w-2" data-name="w" d="M860.74,30.93c13.78.14,30.52-2.37,30.22,11.7-.15,11.11-10.22,13-22.52,12.15V67.67h-7.7Zm7.7,17.92c7,0,14.82,1,14.82-6.07s-8-5.78-14.82-5.78V48.85"/><path id="x-2" data-name="x" d="M909.63,44.41c-8.74,0-5,14.37-5.78,23.26h-7.41V29h7.41l-.15,16.15c1.78-3.85,4.15-6.08,9-6.22,12.74-.15,8.59,16.74,9.33,28.74h-7.4c-1-8.45,3.4-23.26-5-23.26"/><path id="y-2" data-name="y" d="M944.89,62.63c-2.37,2.81-4.45,5.78-9.48,5.63-5.49-.15-8.6-3-8.6-8.59-.14-8.89,8.15-9.34,17.19-9,.15-3.85-.45-7-4.15-7-2.67.14-3.85,1.33-4.15,4l-7.7-.3c1-5.63,5.33-8.59,12.15-8.44s11,3.26,11.11,10.07l.15,12.15c-.15,2.07,1.77,2.66,3.7,2.22v4C950.67,68.56,944.59,68.11,944.89,62.63Zm-7.11.44c4.29,0,6.37-3.55,6.22-8.44-4.74,0-9.78-.44-9.63,4.44,0,2.52,1.18,4,3.41,4"/><path id="z-2" data-name="z" d="M975.11,47.22c.15-4.29-10.37-5-10.52-.59,2.22,6.81,17.48,1,17.63,12.74.15,12.3-24.3,11.26-25.48,1.33l6.37-1c.59,2.81,3,3.7,6.52,3.7,4.89,1.19,8.44-4.44,3.55-6.07-6.37-2.08-15.11-1.63-15.4-9.78-.3-11.85,22.81-11,23.85-1"/><path id="A-4" data-name="A" d="M1011.85,60.56c-1.93,4.44-5.48,7.85-12.15,7.7-8.89-.3-13.18-5.48-13.18-14.82S991,38.93,999.85,38.93c9.19,0,12.3,6.66,12.45,16H994.22c0,4.59,1.19,8.14,5.78,8.29,2.67,0,4.44-1,5-3.26Zm-6.67-10.23c.74-6.81-8.44-9.33-10.37-3.11a9.89,9.89,0,0,0-.59,3.11h11"/></g><g id="c"><path id="C-2" data-name="C" d="M1055.85,48.41c5.48.59,9.19,3.26,9.19,8.74,0,13.92-19,9.92-32.6,10.52V30.93c12.45.74,30.08-3.41,30.37,9.33C1062.81,44.85,1060,47.67,1055.85,48.41Zm-15.7-2.67c5.92-.44,15,1.93,15-4.44s-8.89-4.15-15-4.6Zm0,16.3c7.11-.45,17.18,2.07,17.18-5.48,0-7.12-10.22-4.75-17.18-5.19V62"/></g><path class="cls-2" d="M222.22,180.72h240v60h-240Z"/><g id="d"><path id="D-2" data-name="D" d="M288.9,216.94V195.51h2.94v21.43H288.9"/><path id="E" d="M304.8,200.17c7.69-.34,4.58,10,5.19,16.77h-2.77V206.48c0-2.68-.69-4.23-3.37-4.15-6.22.18-3.8,8.82-4.23,14.61h-2.77l-.09-16.42h2.6a13.42,13.42,0,0,0,.17,2.76c1-1.9,2.51-3,5.27-3.11"/><path id="F" d="M321.91,200.17c4.76.09,6,3.55,6,8.47s-1.38,8.47-6,8.64a5.29,5.29,0,0,1-5.18-2.93l.08,9.07h-2.76l-.09-22.9h2.68l.17,2.59C317.68,201.3,319.23,200.17,321.91,200.17Zm-.69,15c3.46,0,3.89-2.94,3.89-6.48s-.52-6.31-3.89-6.4c-3.63,0-4.41,2.77-4.41,6.57s.87,6.31,4.41,6.31"/><path id="G" d="M336.52,217.28c-7.69.35-4.67-10-5.27-16.76H334v10.37c0,2.68.61,4.32,3.37,4.23,6.22-.17,3.89-8.72,4.32-14.6h2.68l.09,16.42h-2.59a15.08,15.08,0,0,0-.18-2.85,5.38,5.38,0,0,1-5.18,3.19"/><path id="H" d="M351.64,212.88c-.17,2.07,1.56,2.5,3.28,1.9v2.07c-2.85.87-6,.43-6-3.37v-11H347v-2h2.08l.78-3.72h1.81v3.72h3v2h-3v10.37"/></g><g id="e-2" data-name="e"><path id="I" d="M377.48,203.46l-1.21,5.62h3.89v1.64h-4.24l-1.38,6.22H372.9l1.3-6.22h-5.53l-1.3,6.22h-1.64l1.29-6.22h-3v-1.64h3.37l1.21-5.62h-3.8v-1.64h4.14l1.3-6.14H372l-1.38,6.14h5.53l1.38-6.14h1.64l-1.38,6.14h3.2v1.64Zm-7.17,0-1.21,5.62h5.44l1.21-5.62h-5.44"/><path id="J" d="M383.44,216.94v-2.33H389V198.19l-4.84,3.37v-2.51l5-3.54h2.5v19.1h5.27v2.33H383.44"/></g><path class="cls-2" d="M65.22,400V160h60V400Z"/><g id="f-2" data-name="f"><path id="K" d="M103.22,376.11H75.67v-5.78h27.55v5.78"/><path id="L" d="M85.78,343.22c1,5.89,11.11,3.11,17.44,3.78v5.44H91.33c-3-.11-5.44.56-5.55,3.23,1.11,5.89,11.11,3,17.44,3.66v5.56L82.11,365v-5.22c1.33-.22,3.11.11,4.22-.34-5.89-1.11-6.22-11.22,0-12-2.44-1.44-4.78-2.66-4.66-6.55.11-9.11,12.88-5.67,21.55-6.33V340H91.33c-2.78.11-5.33.56-5.55,3.22"/><path id="L-2" data-name="L" d="M85.78,307.67c1,5.89,11.11,3.11,17.44,3.77v5.45H91.33c-3-.11-5.44.55-5.55,3.22,1.11,5.89,11.11,3,17.44,3.67v5.55l-21.11.11v-5.22c1.33-.22,3.11.11,4.22-.33-5.89-1.11-6.22-11.22,0-12-2.44-1.45-4.78-2.67-4.66-6.56.11-9.11,12.88-5.66,21.55-6.33v5.44H91.33c-2.78.12-5.33.56-5.55,3.23"/><path id="A-5" data-name="A" d="M97.89,276c3.33,1.44,5.89,4.11,5.78,9.11-.23,6.67-4.12,9.89-11.12,9.89s-10.88-3.33-10.88-10c0-6.89,5-9.22,12-9.33v13.55c3.44,0,6.11-.89,6.22-4.33,0-2-.78-3.33-2.45-3.78Zm-7.67,5c-5.11-.56-7,6.33-2.33,7.78a7.26,7.26,0,0,0,2.33.44V281"/><path id="M" d="M81.67,264.56c-.12-3.45,1.66-5.12,3.77-6.45l-11.22.11v-5.55l29-.11v5.33c-1.11.22-2.55,0-3.44.33,2.55,1.22,3.89,3.22,3.89,6.78,0,5.78-5,7.56-11,7.67C86.44,272.67,81.89,270.56,81.67,264.56Zm18.22-1.89c0-3.67-3.34-4.45-7.34-4.56s-7.11,1-7.11,4.56,3.34,4.22,7.23,4.33c4.77,0,7.22-1.44,7.22-4.33"/><path id="N" d="M78.33,247.22H74.22v-5.55h4.11Zm24.89,0H82.11v-5.55h21.11v5.55"/><path id="y-3" data-name="y" d="M99.44,224.11c2.11,1.78,4.34,3.33,4.23,7.11-.12,4.11-2.23,6.45-6.45,6.45-6.67.11-7-6.11-6.78-12.89-2.89-.11-5.22.33-5.22,3.11.11,2,1,2.89,3,3.11L88,236.78c-4.22-.78-6.45-4-6.33-9.11s2.44-8.23,7.55-8.34l9.11-.11c1.56.11,2-1.33,1.67-2.78h3C103.89,219.78,103.55,224.33,99.44,224.11Zm.34,5.33c0-3.22-2.67-4.77-6.34-4.66,0,3.55-.33,7.33,3.34,7.22,1.89,0,3-.89,3-2.56"/><path id="O" d="M102.89,203.89c1.55,4,.78,9.67-4.67,9.67H85.78v2.66H82.11v-3l-5-1.66v-3.45h5v-4h3.67v4h11c2.55.11,3.44-1.78,2.77-4.22h3.34"/><path id="A-6" data-name="A" d="M97.89,182.89c3.33,1.44,5.89,4.11,5.78,9.11-.23,6.67-4.12,9.89-11.12,9.89s-10.88-3.33-10.88-10c0-6.89,5-9.22,12-9.33v13.55c3.44,0,6.11-.89,6.22-4.33,0-2-.78-3.34-2.45-3.78Zm-7.67,5c-5.11-.56-7,6.33-2.33,7.78a7.26,7.26,0,0,0,2.33.44v-8.22"/></g><path class="cls-2" d="M50,1022.72v-352h90.38v352Z"/><g id="g-2" data-name="g"><path id="P" d="M103.53,964.77l-21.23,12c6.45-.66,14.23-.22,21.23-.33v5.11H76V975l21.45-12.22c-6.45.67-14.34.22-21.45.34V958h27.56v6.78"/><path id="Q" d="M82,943.22c0-7.11,4-10.67,11-10.67s11,3.89,11,10.78-4,10.55-11,10.55S82,950.11,82,943.22Zm18.22.11c0-3.89-3.11-5-7.22-5-4.44,0-7.22,1.11-7.22,4.78s2.89,5,7.22,5c4,0,7.22-1.12,7.22-4.78"/><path id="O-2" data-name="O" d="M103.19,918.33c1.56,4,.78,9.66-4.66,9.66H86.08v2.67H82.42v-3l-5-1.67v-3.44h5v-4h3.66v4h11c2.56.11,3.45-1.78,2.78-4.22h3.33"/></g><g id="h-2" data-name="h"><path id="K-2" data-name="K" d="M103.53,904.11H76v-5.78h27.56v5.78"/><path id="L-3" data-name="L" d="M86.08,871.22c1,5.89,11.11,3.11,17.45,3.77v5.45H91.64c-3-.11-5.45.55-5.56,3.22,1.11,5.89,11.11,3,17.45,3.67v5.55L82.42,893v-5.22c1.33-.22,3.11.11,4.22-.33-5.89-1.11-6.22-11.22,0-12-2.45-1.45-4.78-2.67-4.67-6.56.11-9.11,12.89-5.66,21.56-6.33V868H91.64c-2.78.12-5.34.56-5.56,3.23"/><path id="L-4" data-name="L" d="M86.08,835.66c1,5.89,11.11,3.11,17.45,3.78v5.44H91.64c-3-.11-5.45.56-5.56,3.23,1.11,5.88,11.11,3,17.45,3.66v5.56l-21.11.11v-5.22c1.33-.23,3.11.11,4.22-.34-5.89-1.11-6.22-11.22,0-12-2.45-1.44-4.78-2.66-4.67-6.55.11-9.11,12.89-5.67,21.56-6.34v5.45H91.64c-2.78.11-5.34.55-5.56,3.22"/><path id="A-7" data-name="A" d="M98.19,804c3.34,1.45,5.89,4.12,5.78,9.12-.22,6.66-4.11,9.88-11.11,9.88S82,819.66,82,813c0-6.88,5-9.22,12-9.33v13.56c3.45,0,6.11-.89,6.22-4.34,0-2-.77-3.33-2.44-3.77Zm-7.66,5c-5.11-.55-7,6.34-2.34,7.78a7.37,7.37,0,0,0,2.34.45V809"/><path id="M-2" data-name="M" d="M82,792.55c-.11-3.44,1.67-5.11,3.78-6.44l-11.22.11v-5.56l29-.11v5.33c-1.11.23-2.56,0-3.45.34,2.56,1.22,3.89,3.22,3.89,6.77,0,5.78-5,7.56-11,7.67C86.75,800.66,82.19,798.55,82,792.55Zm18.22-1.89c0-3.67-3.33-4.44-7.33-4.55s-7.11,1-7.11,4.55S89.08,794.88,93,795c4.78,0,7.22-1.44,7.22-4.33"/><path id="N-2" data-name="N" d="M78.64,775.22H74.53v-5.56h4.11Zm24.89,0H82.42v-5.56h21.11v5.56"/><path id="y-4" data-name="y" d="M99.75,752.11c2.11,1.77,4.33,3.33,4.22,7.11-.11,4.11-2.22,6.44-6.44,6.44-6.67.11-7-6.11-6.78-12.89-2.89-.11-5.22.34-5.22,3.11.11,2,1,2.89,3,3.11l-.23,5.78c-4.22-.78-6.44-4-6.33-9.11s2.45-8.22,7.56-8.33l9.11-.11c1.55.11,2-1.34,1.66-2.78h3C104.19,747.77,103.86,752.33,99.75,752.11Zm.33,5.33c0-3.22-2.66-4.78-6.33-4.67,0,3.56-.33,7.34,3.33,7.22,1.89,0,3-.88,3-2.55"/><path id="O-3" data-name="O" d="M103.19,731.88c1.56,4,.78,9.67-4.66,9.67H86.08v2.67H82.42v-3l-5-1.67v-3.44h5v-4h3.66v4h11c2.56.11,3.45-1.78,2.78-4.23h3.33"/><path id="A-8" data-name="A" d="M98.19,710.88c3.34,1.45,5.89,4.11,5.78,9.11-.22,6.67-4.11,9.89-11.11,9.89S82,726.55,82,719.88c0-6.89,5-9.22,12-9.33v13.56c3.45,0,6.11-.89,6.22-4.34,0-2-.77-3.33-2.44-3.78Zm-7.66,5c-5.11-.55-7,6.34-2.34,7.78a7.37,7.37,0,0,0,2.34.45v-8.23"/></g><path class="cls-2" d="M42.22,1572V1220h106v352Z"/><g id="i-2" data-name="i"><path id="R" d="M75.33,1461.33c0-8.89,5-13.89,14-13.89s14.34,5.12,14.34,14-5.34,13.78-14.34,13.78S75.33,1470.33,75.33,1461.33Zm23.78.11c0-5.77-3.89-8.11-9.78-8.11-5.55,0-9.55,2.34-9.55,8s3.89,8.11,9.55,8.11,9.78-2.44,9.78-8"/><path id="S" d="M81.67,1430.78c0-5.89,4.88-7.78,10.88-7.78,6.23,0,10.89,2.11,11.12,8.11.11,3.45-1.89,5-3.78,6.56,3.66-.34,7.66-.23,11.66-.23V1443l-29.44.11v-5.33c1.11-.22,2.56,0,3.44-.34C82.89,1436.22,81.67,1434.22,81.67,1430.78Zm18.22,2.33c0-3.67-3.45-4.33-7.34-4.44-4.22,0-7.11,1-7.11,4.44,0,6.22,14.45,6.11,14.45,0"/><path id="O-4" data-name="O" d="M102.89,1408.67c1.55,4,.78,9.66-4.67,9.66H85.78V1421H82.11v-3l-5-1.67v-3.44h5v-4h3.67v4h11c2.55.11,3.44-1.78,2.77-4.22h3.34"/><path id="N-3" data-name="N" d="M78.33,1405.44H74.22v-5.55h4.11Zm24.89,0H82.11v-5.55h21.11v5.55"/><path id="Q-2" data-name="Q" d="M81.67,1384.89c0-7.11,4-10.67,11-10.67s11,3.89,11,10.78-4,10.56-11,10.56S81.67,1391.78,81.67,1384.89Zm18.22.11c0-3.89-3.11-5-7.22-5-4.45,0-7.23,1.11-7.23,4.78s2.89,5,7.23,5c4,0,7.22-1.11,7.22-4.78"/><path id="T" d="M81.67,1357.78c-.12-9.67,12.55-6.45,21.55-7v5.55c-6.33.78-17.44-2.55-17.44,3.78,0,6.56,10.77,3.78,17.44,4.33V1370l-21.11.11v-5.22c1.33-.22,3.11.11,4.22-.33-2.89-1.34-4.55-3.12-4.66-6.78"/><path id="y-5" data-name="y" d="M99.44,1333.67c2.11,1.77,4.34,3.33,4.23,7.11-.12,4.11-2.23,6.44-6.45,6.44-6.67.11-7-6.11-6.78-12.89-2.89-.11-5.22.34-5.22,3.11.11,2,1,2.89,3,3.12l-.22,5.77c-4.22-.77-6.45-4-6.33-9.11s2.44-8.22,7.55-8.33l9.11-.11c1.56.11,2-1.34,1.67-2.78h3C103.89,1329.33,103.55,1333.89,99.44,1333.67Zm.34,5.33c0-3.22-2.67-4.78-6.34-4.67,0,3.56-.33,7.34,3.34,7.23,1.89,0,3-.89,3-2.56"/><path id="U" d="M103.22,1323.44h-29v-5.55h29v5.55"/></g><path class="cls-3" d="M571.44,210.72h186"/><path class="cls-4" d="M556.16,210.72l14.28-4.64v9.27Zm216.54,0-14.26,4.63v-9.27Z"/><path class="cls-2" d="M552.94,240.72h240v60h-240Z"/><g id="j-2" data-name="j"><path id="V" d="M607.76,275.19l-8.2-13.11.06,13.11h-1.8V259.78h2.42L608.5,273l-.12-13.24h1.92v15.41h-2.54"/><path id="W-3" data-name="W" d="M618.26,263.14c3.85-.07,5.28,2.3,5.28,6.15s-1.68,6.15-5.34,6.15S613,273,613,269.29C613,265.19,614.72,263.14,618.26,263.14ZM618.2,274c2.73.06,3.29-1.93,3.29-4.66s-.5-4.66-3.17-4.66-3.29,2-3.29,4.66.62,4.6,3.17,4.66"/></g><g id="k-3" data-name="k"><path id="X-3" data-name="X" d="M636.65,264.69c-2.48,0-3,2.05-3,4.54s.56,4.66,3,4.66a2.47,2.47,0,0,0,2.67-2.37l2,.13a4.26,4.26,0,0,1-4.6,3.79c-3.66,0-4.72-2.55-5.09-6.15-.62-5.78,6.27-8.14,9.13-4a5.23,5.23,0,0,1,.44,1.37l-2,.18a2.38,2.38,0,0,0-2.55-2.17"/><path id="W-4" data-name="W" d="M648.08,263.14c3.86-.07,5.29,2.3,5.29,6.15s-1.68,6.15-5.35,6.15-5.16-2.42-5.22-6.15C642.8,265.19,644.54,263.14,648.08,263.14ZM648,274c2.74.06,3.29-1.93,3.29-4.66s-.49-4.66-3.16-4.66-3.3,2-3.3,4.66.62,4.6,3.17,4.66"/><path id="E-3" data-name="E" d="M661.57,263.14c5.53-.25,3.29,7.2,3.73,12.05h-2v-7.52c0-1.92-.5-3-2.43-3-4.47.12-2.73,6.34-3,10.5h-2l-.06-11.81h1.86a9.55,9.55,0,0,0,.13,2,3.93,3.93,0,0,1,3.79-2.23"/><path id="H-3" data-name="H" d="M670.39,272.27c-.12,1.49,1.12,1.8,2.36,1.37v1.49c-2,.62-4.35.31-4.35-2.42v-7.9H667v-1.43h1.49l.56-2.67h1.3v2.67h2.18v1.43h-2.18v7.46"/><path id="Y-6" data-name="Y" d="M674.43,260.84V259h2v1.87Zm0,14.35V263.38h2v11.81h-2"/><path id="E-4" data-name="E" d="M685.12,263.14c5.53-.25,3.29,7.2,3.72,12.05h-2v-7.52c0-1.92-.5-3-2.43-3-4.47.12-2.73,6.34-3,10.5h-2l-.06-11.81h1.86a9.55,9.55,0,0,0,.13,2,3.93,3.93,0,0,1,3.79-2.23"/><path id="Z-3" data-name="Z" d="M701.27,263.38c-.62,7.77,2.55,18.21-6.83,16.22a3.55,3.55,0,0,1-2.74-2.67l2-.31c.93,2.92,6.22,2,5.53-1.74V273a3.93,3.93,0,0,1-3.79,2.23c-3.35,0-4.22-2.54-4.22-6s1-6,4.41-6.09a4,4,0,0,1,3.66,2.17c.07-.62,0-1.43.13-2Zm-5.16,10.44c2.24,0,3.11-2,3.11-4.53s-.87-4.66-3.11-4.66c-2.42,0-2.85,2.11-2.85,4.66s.37,4.53,2.85,4.53"/><path id="aa" d="M708.91,263.14c3.92,0,5.35,2.61,5.22,6.58h-8.38c0,2.49.87,4.17,3.29,4.23a2.9,2.9,0,0,0,3-1.8l1.74.49c-.68,1.74-2.3,2.8-4.78,2.8-3.6,0-5.47-2.3-5.41-6.21S705.25,263.14,708.91,263.14Zm3.24,5c.37-3.73-4.73-4.79-6-1.74a4.45,4.45,0,0,0-.37,1.74h6.4"/><path id="E-5" data-name="E" d="M722.4,263.14c5.53-.25,3.29,7.2,3.73,12.05h-2v-7.52c0-1.92-.5-3-2.43-3-4.47.12-2.73,6.34-3,10.5h-2l-.06-11.81h1.86a10.29,10.29,0,0,0,.13,2,3.93,3.93,0,0,1,3.79-2.23"/><path id="X-4" data-name="X" d="M733.52,264.69c-2.48,0-3,2.05-3,4.54s.56,4.66,3,4.66a2.47,2.47,0,0,0,2.67-2.37l2,.13a4.26,4.26,0,0,1-4.6,3.79c-3.66,0-4.72-2.55-5.09-6.15-.62-5.78,6.27-8.14,9.13-4a5.23,5.23,0,0,1,.44,1.37l-2,.18a2.38,2.38,0,0,0-2.55-2.17"/><path id="ab" d="M749.86,263.38l-5.34,13.74c-.87,1.74-2.3,3.17-5,2.61v-1.49c2.42.37,3.29-1.25,4-3.11l-4.66-11.75h2.11l3.55,9.7,3.35-9.7h2.05"/></g><path class="cls-2" d="M222.22,430.72h240v60h-240Z"/><g id="d-3" data-name="d"><path id="D-4" data-name="D" d="M288.9,466.94V445.51h2.94v21.43H288.9"/><path id="E-6" data-name="E" d="M304.8,450.17c7.69-.34,4.58,10,5.19,16.77h-2.77V456.48c0-2.68-.69-4.23-3.37-4.15-6.22.18-3.8,8.82-4.23,14.61h-2.77l-.09-16.42h2.6a13.42,13.42,0,0,0,.17,2.76c1-1.9,2.51-3,5.27-3.11"/><path id="F-3" data-name="F" d="M321.91,450.17c4.76.09,6,3.55,6,8.47s-1.38,8.47-6,8.64a5.29,5.29,0,0,1-5.18-2.93l.08,9.07h-2.76l-.09-22.9h2.68l.17,2.59C317.68,451.3,319.23,450.17,321.91,450.17Zm-.69,15c3.46,0,3.89-2.94,3.89-6.48s-.52-6.31-3.89-6.4c-3.63,0-4.41,2.77-4.41,6.57s.87,6.31,4.41,6.31"/><path id="G-3" data-name="G" d="M336.52,467.28c-7.69.35-4.67-10-5.27-16.76H334v10.37c0,2.68.61,4.32,3.37,4.23,6.22-.17,3.89-8.72,4.32-14.6h2.68l.09,16.42h-2.59a15.08,15.08,0,0,0-.18-2.85,5.38,5.38,0,0,1-5.18,3.19"/><path id="H-4" data-name="H" d="M351.64,462.88c-.17,2.07,1.56,2.5,3.28,1.9v2.07c-2.85.87-6,.43-6-3.37v-11H347v-2h2.08l.78-3.72h1.81v3.72h3v2h-3v10.37"/></g><g id="l-5" data-name="l"><path id="I-3" data-name="I" d="M377.48,453.46l-1.21,5.62h3.89v1.64h-4.24l-1.38,6.22H372.9l1.3-6.22h-5.53l-1.3,6.22h-1.64l1.29-6.22h-3v-1.64h3.37l1.21-5.62h-3.8v-1.64h4.14l1.3-6.14H372l-1.38,6.14h5.53l1.38-6.14h1.64l-1.38,6.14h3.2v1.64Zm-7.17,0-1.21,5.62h5.44l1.21-5.62h-5.44"/><path id="ac" d="M389.84,445.25c7.08-.61,8,7.52,3.71,11.41l-5.35,4.75a10,10,0,0,0-2.51,3.2h11.15v2.33H382.67c.17-8.56,11.06-8.12,11.06-15.73,0-2.42-1.39-3.72-3.89-3.72s-4,1.3-4.24,3.55l-2.76-.26c.52-3.54,2.94-5.19,7-5.53"/></g><path class="cls-3" d="M552.44,430.72h203.5m-203.48,0h-1"/><path class="cls-4" d="M771.2,430.72l-14.26,4.63v-9.27Z"/><path class="cls-2" d="M532.94,470.72h260v74h-260Z"/><g id="m-3" data-name="m"><path id="ad" d="M580.64,501.19a4.09,4.09,0,0,1-3.73,4.35l4.35,6.65H578.9l-4-6.4h-4.78v6.4H568V496.78C573.49,497,580.76,495.48,580.64,501.19Zm-10.56,3c3.72-.13,8.51.8,8.51-2.93s-5-2.6-8.51-2.79v5.72"/><path id="aa-2" data-name="aa" d="M588.47,500.14c3.91,0,5.34,2.61,5.22,6.58H585.3c0,2.49.87,4.17,3.29,4.23a2.91,2.91,0,0,0,3-1.8l1.74.49c-.69,1.74-2.3,2.8-4.79,2.8-3.6,0-5.47-2.3-5.4-6.21S584.8,500.14,588.47,500.14Zm3.23,5c.37-3.73-4.72-4.79-6-1.74a4.63,4.63,0,0,0-.37,1.74h6.4"/><path id="ae" d="M603.69,510.26a3.76,3.76,0,0,1-3.73,2.18c-3.29,0-4.28-2.42-4.35-6.09s1.06-6.15,4.35-6.21a3.85,3.85,0,0,1,3.73,2.05,6.57,6.57,0,0,1,.13-2h1.86l-.06,16.65h-2Zm-3.23.63c2.55,0,3.17-2.05,3.17-4.73s-.5-4.53-3.11-4.53-2.86,2.17-2.86,4.66.31,4.6,2.8,4.6"/><path id="G-4" data-name="G" d="M612.33,512.44c-5.53.25-3.36-7.21-3.79-12.06h2v7.46c0,1.93.43,3.11,2.42,3.05,4.47-.13,2.8-6.28,3.11-10.51H618l.06,11.81h-1.86a11.09,11.09,0,0,0-.12-2.05,3.88,3.88,0,0,1-3.73,2.3"/><path id="Y-7" data-name="Y" d="M621,497.84V496h2v1.87Zm0,14.35V500.38h2v11.81h-2"/><path id="af" d="M631.53,502.06c-4.85-1-3.29,5.66-3.54,10.13h-2l-.06-11.81h1.86a15.63,15.63,0,0,0,.12,2.43c.38-1.68,1.43-3.05,3.61-2.55v1.8"/><path id="aa-3" data-name="aa" d="M638.05,500.14c3.92,0,5.35,2.61,5.22,6.58h-8.39c0,2.49.87,4.17,3.3,4.23a2.9,2.9,0,0,0,3-1.8l1.74.49c-.68,1.74-2.3,2.8-4.78,2.8-3.61,0-5.47-2.3-5.41-6.21S634.39,500.14,638.05,500.14Zm3.23,5c.38-3.73-4.72-4.79-6-1.74a4.44,4.44,0,0,0-.38,1.74h6.4"/><path id="ag" d="M652.65,503.31c-.18-2.12-5.34-2.37-5.4,0,.93,3.29,7.14.74,7.39,5.59s-9.32,4.6-9.75.49l1.74-.31c.25,2.24,6,2.8,6.09,0-.62-3.48-7-.93-7.34-5.59-.24-3.54,5.1-3.91,7.59-2.61a3.16,3.16,0,0,1,1.49,2.18"/></g><g id="n-4" data-name="n"><path id="G-5" data-name="G" d="M666.88,512.44c-5.53.25-3.35-7.21-3.79-12.06h2v7.46c0,1.93.44,3.11,2.43,3.05,4.47-.13,2.79-6.28,3.1-10.51h1.93l.06,11.81h-1.86a11,11,0,0,0-.13-2.05,3.87,3.87,0,0,1-3.73,2.3"/><path id="ag-2" data-name="ag" d="M682.48,503.31c-.19-2.12-5.34-2.37-5.41,0,.94,3.29,7.15.74,7.4,5.59s-9.32,4.6-9.76.49l1.74-.31c.25,2.24,6,2.8,6.09,0-.62-3.48-7-.93-7.33-5.59-.25-3.54,5.1-3.91,7.58-2.61a3.1,3.1,0,0,1,1.49,2.18"/><path id="aa-4" data-name="aa" d="M691.49,500.14c3.91,0,5.34,2.61,5.22,6.58h-8.39c0,2.49.87,4.17,3.29,4.23a2.9,2.9,0,0,0,3-1.8l1.74.49c-.69,1.74-2.3,2.8-4.79,2.8-3.6,0-5.46-2.3-5.4-6.21S687.82,500.14,691.49,500.14Zm3.23,5c.37-3.73-4.72-4.79-6-1.74a4.63,4.63,0,0,0-.37,1.74h6.4"/><path id="af-2" data-name="af" d="M704.79,502.06c-4.85-1-3.3,5.66-3.55,10.13h-2l-.07-11.81h1.87a15.63,15.63,0,0,0,.12,2.43c.38-1.68,1.43-3.05,3.61-2.55v1.8"/></g><g id="o-5" data-name="o"><path id="Y-8" data-name="Y" d="M712.8,497.84V496h2v1.87Zm0,14.35V500.38h2v11.81h-2"/><path id="E-7" data-name="E" d="M723.49,500.14c5.53-.25,3.29,7.2,3.73,12.05h-2v-7.52c0-1.92-.5-3-2.42-3-4.48.12-2.74,6.34-3,10.5h-2l-.06-11.81h1.87a9.59,9.59,0,0,0,.12,2,3.93,3.93,0,0,1,3.79-2.23"/><path id="F-4" data-name="F" d="M735.79,500.14c3.42.06,4.35,2.54,4.35,6.09s-1,6.09-4.35,6.21a3.83,3.83,0,0,1-3.73-2.11l.07,6.52h-2l-.06-16.47H732l.13,1.87A3.65,3.65,0,0,1,735.79,500.14ZM735.3,511c2.48,0,2.79-2.11,2.79-4.66s-.37-4.54-2.79-4.6c-2.61,0-3.17,2-3.17,4.72s.62,4.54,3.17,4.54"/><path id="G-6" data-name="G" d="M746.29,512.44c-5.53.25-3.35-7.21-3.79-12.06h2v7.46c0,1.93.44,3.11,2.42,3.05,4.48-.13,2.8-6.28,3.11-10.51H752l.06,11.81h-1.86a11,11,0,0,0-.13-2.05,3.87,3.87,0,0,1-3.73,2.3"/><path id="H-5" data-name="H" d="M757.17,509.27c-.13,1.49,1.12,1.8,2.36,1.37v1.49c-2,.62-4.35.31-4.35-2.42v-7.9h-1.37v-1.43h1.49l.56-2.67h1.31v2.67h2.17v1.43h-2.17v7.46"/></g><path class="cls-5" d="M842.22,410.72h240v100h-240Z"/><path class="cls-6" d="M867.22,410.72h10m20,0h10m20,0h10m20,0h10m20,0h10m20,0h10m20,0h10m20,0h5v5.55m0,22.22v11.1m0,22.23v11.1m0,22.23v5.56h-5m-20,0h-10m-20,0h-10m-20,0h-10m-20,0h-10m-20,0h-10m-20,0h-10m-20,0h-10m-20,0h-5v-5.56m0-22.22v-11.1m0-22.23V438.5m0-22.23v-5.55h5"/><g id="d-5" data-name="d"><path id="D-6" data-name="D" d="M900.26,466.94V445.51h2.94v21.43h-2.94"/><path id="E-8" data-name="E" d="M916.16,450.17c7.69-.34,4.58,10,5.18,16.77h-2.76V456.48c0-2.68-.69-4.23-3.37-4.15-6.22.18-3.8,8.82-4.24,14.61h-2.76l-.09-16.42h2.59a14.12,14.12,0,0,0,.18,2.76c1-1.9,2.5-3,5.27-3.11"/><path id="F-5" data-name="F" d="M933.27,450.17c4.75.09,6.05,3.55,6.05,8.47s-1.38,8.47-6.05,8.64a5.29,5.29,0,0,1-5.18-2.93l.08,9.07h-2.76l-.09-22.9H928l.17,2.59C929,451.3,930.59,450.17,933.27,450.17Zm-.69,15c3.46,0,3.89-2.94,3.89-6.48s-.52-6.31-3.89-6.4c-3.63,0-4.41,2.77-4.41,6.57s.87,6.31,4.41,6.31"/><path id="G-7" data-name="G" d="M947.88,467.28c-7.7.35-4.67-10-5.28-16.76h2.77v10.37c0,2.68.6,4.32,3.37,4.23,6.22-.17,3.89-8.72,4.32-14.6h2.68l.09,16.42h-2.6a14.33,14.33,0,0,0-.17-2.85,5.38,5.38,0,0,1-5.18,3.19"/><path id="H-6" data-name="H" d="M963,462.88c-.17,2.07,1.55,2.5,3.28,1.9v2.07c-2.85.87-6,.43-6-3.37v-11h-1.9v-2h2.08l.77-3.72H963v3.72h3v2h-3v10.37"/></g><g id="p-2" data-name="p"><path id="I-4" data-name="I" d="M988.84,453.46l-1.21,5.62h3.89v1.64h-4.24l-1.38,6.22h-1.64l1.29-6.22H980l-1.29,6.22h-1.64l1.29-6.22h-3v-1.64h3.37l1.21-5.62h-3.81v-1.64h4.15l1.3-6.14h1.73l-1.39,6.14h5.54l1.38-6.14h1.64l-1.38,6.14h3.2v1.64Zm-7.17,0-1.21,5.62h5.44l1.21-5.62h-5.44"/><path id="ac-2" data-name="ac" d="M1001.2,445.25c7.08-.61,8,7.52,3.71,11.41l-5.36,4.75a10,10,0,0,0-2.5,3.2h11.15v2.33H994c.18-8.56,11.07-8.12,11.07-15.73,0-2.42-1.39-3.72-3.89-3.72s-4,1.3-4.24,3.55l-2.76-.26c.51-3.54,2.93-5.19,7-5.53"/><path id="ah" d="M1021.94,463.83c-1.3,1.81-2.68,3.54-5.88,3.45s-5-1.81-5-4.92c-.09-5.53,5.44-5.45,10.8-5.45.26-3-.78-4.66-3.54-4.66-2.08.08-3.55.6-3.63,2.68l-2.85-.26c.43-3.2,2.85-4.5,6.56-4.5,3.89,0,6.23,1.73,6.23,5.53v7.09c-.09,1.73.6,2.77,2.42,2.33v1.73C1024.36,467.63,1021.76,466.68,1021.94,463.83Zm-8-1.47a2.61,2.61,0,0,0,2.77,2.85c3.54-.26,5.44-2.51,5.18-6.39-3.72.17-8-.44-8,3.54"/></g><path class="cls-2" d="M222.22,690.72h240v60h-240Z"/><g id="d-7" data-name="d"><path id="D-8" data-name="D" d="M288.9,726.94V705.51h2.94v21.43H288.9"/><path id="E-9" data-name="E" d="M304.8,710.17c7.69-.34,4.58,10,5.19,16.77h-2.77V716.48c0-2.68-.69-4.23-3.37-4.15-6.22.18-3.8,8.82-4.23,14.61h-2.77l-.09-16.42h2.6a13.42,13.42,0,0,0,.17,2.76c1-1.9,2.51-3,5.27-3.11"/><path id="F-6" data-name="F" d="M321.91,710.17c4.76.09,6,3.55,6,8.47s-1.38,8.47-6,8.64a5.29,5.29,0,0,1-5.18-2.93l.08,9.07h-2.76l-.09-22.9h2.68l.17,2.59C317.68,711.3,319.23,710.17,321.91,710.17Zm-.69,15c3.46,0,3.89-2.94,3.89-6.48s-.52-6.31-3.89-6.4c-3.63,0-4.41,2.77-4.41,6.57s.87,6.31,4.41,6.31"/><path id="G-8" data-name="G" d="M336.52,727.28c-7.69.35-4.67-10-5.27-16.76H334v10.37c0,2.68.61,4.32,3.37,4.23,6.22-.17,3.89-8.72,4.32-14.6h2.68l.09,16.42h-2.59a15.08,15.08,0,0,0-.18-2.85,5.38,5.38,0,0,1-5.18,3.19"/><path id="H-7" data-name="H" d="M351.64,722.88c-.17,2.07,1.56,2.5,3.28,1.9v2.07c-2.85.87-6,.43-6-3.37v-11H347v-2h2.08l.78-3.72h1.81v3.72h3v2h-3v10.37"/></g><g id="q-3" data-name="q"><path id="I-5" data-name="I" d="M377.48,713.46l-1.21,5.62h3.89v1.64h-4.24l-1.38,6.22H372.9l1.3-6.22h-5.53l-1.3,6.22h-1.64l1.29-6.22h-3v-1.64h3.37l1.21-5.62h-3.8v-1.64h4.14l1.3-6.14H372l-1.38,6.14h5.53l1.38-6.14h1.64l-1.38,6.14h3.2v1.64Zm-7.17,0-1.21,5.62h5.44l1.21-5.62h-5.44"/><path id="ai" d="M392,716c2.85.52,5,1.73,5,5.1,0,7.61-12,8-14.17,2.51a8.86,8.86,0,0,1-.52-2.16l2.77-.26c.51,2.33,1.81,3.8,4.66,3.8s4.5-1.29,4.5-4c0-3.29-3.12-4-6.83-3.72v-2.42c3.37.09,6.22-.35,6.22-3.63,0-2.33-1.47-3.72-4-3.72s-4.07,1.3-4.24,3.55l-2.76-.26c.51-3.63,3-5.45,7-5.53,4.14-.09,6.82,1.81,6.82,5.62,0,3.11-1.81,4.49-4.49,5.09"/></g><path class="cls-3" d="M571.44,700.72h186"/><path class="cls-4" d="M556.16,700.72l14.28-4.64v9.27Zm216.54,0-14.26,4.63v-9.27Z"/><path class="cls-2" d="M552.94,750.72h240v60h-240Z"/><g id="j-3" data-name="j"><path id="V-2" data-name="V" d="M607.76,785.19l-8.2-13.11.06,13.11h-1.8V769.78h2.42L608.5,783l-.12-13.24h1.92v15.41h-2.54"/><path id="W-5" data-name="W" d="M618.26,773.14c3.85-.07,5.28,2.3,5.28,6.15s-1.68,6.15-5.34,6.15S613,783,613,779.29C613,775.19,614.72,773.14,618.26,773.14ZM618.2,784c2.73.06,3.29-1.93,3.29-4.66s-.5-4.66-3.17-4.66-3.29,2-3.29,4.66.62,4.6,3.17,4.66"/></g><g id="k-4" data-name="k"><path id="X-5" data-name="X" d="M636.65,774.69c-2.48,0-3,2-3,4.54s.56,4.66,3,4.66a2.47,2.47,0,0,0,2.67-2.37l2,.13a4.26,4.26,0,0,1-4.6,3.79c-3.66,0-4.72-2.55-5.09-6.15-.62-5.78,6.27-8.14,9.13-4a5.23,5.23,0,0,1,.44,1.37l-2,.18a2.38,2.38,0,0,0-2.55-2.17"/><path id="W-6" data-name="W" d="M648.08,773.14c3.86-.07,5.29,2.3,5.29,6.15s-1.68,6.15-5.35,6.15-5.16-2.42-5.22-6.15C642.8,775.19,644.54,773.14,648.08,773.14ZM648,784c2.74.06,3.29-1.93,3.29-4.66s-.49-4.66-3.16-4.66-3.3,2-3.3,4.66.62,4.6,3.17,4.66"/><path id="E-10" data-name="E" d="M661.57,773.14c5.53-.25,3.29,7.2,3.73,12.05h-2v-7.52c0-1.92-.5-3-2.43-3-4.47.12-2.73,6.34-3,10.5h-2l-.06-11.81h1.86a9.55,9.55,0,0,0,.13,2,3.93,3.93,0,0,1,3.79-2.23"/><path id="H-8" data-name="H" d="M670.39,782.27c-.12,1.49,1.12,1.8,2.36,1.37v1.49c-2,.62-4.35.31-4.35-2.42v-7.9H667v-1.43h1.49l.56-2.67h1.3v2.67h2.18v1.43h-2.18v7.46"/><path id="Y-9" data-name="Y" d="M674.43,770.84V769h2v1.87Zm0,14.35V773.38h2v11.81h-2"/><path id="E-11" data-name="E" d="M685.12,773.14c5.53-.25,3.29,7.2,3.72,12.05h-2v-7.52c0-1.92-.5-3-2.43-3-4.47.12-2.73,6.34-3,10.5h-2l-.06-11.81h1.86a9.55,9.55,0,0,0,.13,2,3.93,3.93,0,0,1,3.79-2.23"/><path id="Z-4" data-name="Z" d="M701.27,773.38c-.62,7.77,2.55,18.21-6.83,16.22a3.55,3.55,0,0,1-2.74-2.67l2-.31c.93,2.92,6.22,2,5.53-1.74V783a3.93,3.93,0,0,1-3.79,2.23c-3.35,0-4.22-2.54-4.22-6s1-6,4.41-6.09a4,4,0,0,1,3.66,2.17c.07-.62,0-1.43.13-2Zm-5.16,10.44c2.24,0,3.11-2,3.11-4.53s-.87-4.66-3.11-4.66c-2.42,0-2.85,2.11-2.85,4.66s.37,4.53,2.85,4.53"/><path id="aa-5" data-name="aa" d="M708.91,773.14c3.92,0,5.35,2.61,5.22,6.58h-8.38c0,2.49.87,4.17,3.29,4.23a2.9,2.9,0,0,0,3-1.8l1.74.49c-.68,1.74-2.3,2.8-4.78,2.8-3.6,0-5.47-2.3-5.41-6.21S705.25,773.14,708.91,773.14Zm3.24,5c.37-3.73-4.73-4.79-6-1.74a4.45,4.45,0,0,0-.37,1.74h6.4"/><path id="E-12" data-name="E" d="M722.4,773.14c5.53-.25,3.29,7.2,3.73,12.05h-2v-7.52c0-1.92-.5-3-2.43-3-4.47.12-2.73,6.34-3,10.5h-2l-.06-11.81h1.86a10.29,10.29,0,0,0,.13,2,3.93,3.93,0,0,1,3.79-2.23"/><path id="X-6" data-name="X" d="M733.52,774.69c-2.48,0-3,2-3,4.54s.56,4.66,3,4.66a2.47,2.47,0,0,0,2.67-2.37l2,.13a4.26,4.26,0,0,1-4.6,3.79c-3.66,0-4.72-2.55-5.09-6.15-.62-5.78,6.27-8.14,9.13-4a5.23,5.23,0,0,1,.44,1.37l-2,.18a2.38,2.38,0,0,0-2.55-2.17"/><path id="ab-2" data-name="ab" d="M749.86,773.38l-5.34,13.74c-.87,1.74-2.3,3.17-5,2.61v-1.49c2.42.37,3.29-1.25,4-3.11l-4.66-11.75h2.11l3.55,9.7,3.35-9.7h2.05"/></g><path class="cls-2" d="M222.22,940.72h240v60h-240Z"/><g id="d-9" data-name="d"><path id="D-10" data-name="D" d="M288.9,976.94V955.51h2.94v21.43H288.9"/><path id="E-13" data-name="E" d="M304.8,960.17c7.69-.34,4.58,10,5.19,16.77h-2.77V966.48c0-2.68-.69-4.23-3.37-4.15-6.22.18-3.8,8.82-4.23,14.61h-2.77l-.09-16.42h2.6a13.42,13.42,0,0,0,.17,2.76c1-1.9,2.51-3,5.27-3.11"/><path id="F-7" data-name="F" d="M321.91,960.17c4.76.09,6,3.55,6,8.47s-1.38,8.47-6,8.64a5.29,5.29,0,0,1-5.18-2.93l.08,9.07h-2.76l-.09-22.9h2.68l.17,2.59C317.68,961.3,319.23,960.17,321.91,960.17Zm-.69,15c3.46,0,3.89-2.94,3.89-6.48s-.52-6.31-3.89-6.4c-3.63,0-4.41,2.77-4.41,6.57s.87,6.31,4.41,6.31"/><path id="G-9" data-name="G" d="M336.52,977.28c-7.69.35-4.67-10-5.27-16.76H334v10.37c0,2.68.61,4.32,3.37,4.23,6.22-.17,3.89-8.72,4.32-14.6h2.68l.09,16.42h-2.59a15.08,15.08,0,0,0-.18-2.85,5.38,5.38,0,0,1-5.18,3.19"/><path id="H-9" data-name="H" d="M351.64,972.88c-.17,2.07,1.56,2.5,3.28,1.9v2.07c-2.85.87-6,.43-6-3.37v-11H347v-2h2.08l.78-3.72h1.81v3.72h3v2h-3v10.37"/></g><g id="r-2" data-name="r"><path id="I-6" data-name="I" d="M377.48,963.46l-1.21,5.62h3.89v1.64h-4.24l-1.38,6.22H372.9l1.3-6.22h-5.53l-1.3,6.22h-1.64l1.29-6.22h-3v-1.64h3.37l1.21-5.62h-3.8v-1.64h4.14l1.3-6.14H372l-1.38,6.14h5.53l1.38-6.14h1.64l-1.38,6.14h3.2v1.64Zm-7.17,0-1.21,5.62h5.44l1.21-5.62h-5.44"/><path id="aj" d="M394.51,972.1v4.84h-2.6V972.1H381.8v-2.16l9.85-14.43h2.86v14.43h3v2.16Zm-2.6-13.48a136.1,136.1,0,0,1-7.6,11.32h7.6V958.62"/></g><path class="cls-3" d="M552.44,940.72h203.5m-203.48,0h-1"/><path class="cls-4" d="M771.2,940.72l-14.26,4.63v-9.27Z"/><path class="cls-2" d="M532.94,980.72h260v74h-260Z"/><g id="m-4" data-name="m"><path id="ad-2" data-name="ad" d="M580.64,1011.19a4.09,4.09,0,0,1-3.73,4.35l4.35,6.65H578.9l-4-6.4h-4.78v6.4H568v-15.41C573.49,1007,580.76,1005.48,580.64,1011.19Zm-10.56,3c3.72-.13,8.51.8,8.51-2.93s-5-2.6-8.51-2.79v5.72"/><path id="aa-6" data-name="aa" d="M588.47,1010.14c3.91,0,5.34,2.61,5.22,6.58H585.3c0,2.49.87,4.17,3.29,4.23a2.91,2.91,0,0,0,3-1.8l1.74.49c-.69,1.74-2.3,2.8-4.79,2.8-3.6,0-5.47-2.3-5.4-6.21S584.8,1010.14,588.47,1010.14Zm3.23,5c.37-3.73-4.72-4.79-6-1.74a4.63,4.63,0,0,0-.37,1.74h6.4"/><path id="ae-2" data-name="ae" d="M603.69,1020.26a3.76,3.76,0,0,1-3.73,2.18c-3.29,0-4.28-2.42-4.35-6.09s1.06-6.15,4.35-6.21a3.85,3.85,0,0,1,3.73,2.05,6.57,6.57,0,0,1,.13-2h1.86l-.06,16.65h-2Zm-3.23.63c2.55,0,3.17-2,3.17-4.73s-.5-4.53-3.11-4.53-2.86,2.17-2.86,4.66.31,4.6,2.8,4.6"/><path id="G-10" data-name="G" d="M612.33,1022.44c-5.53.25-3.36-7.21-3.79-12.06h2v7.46c0,1.93.43,3.11,2.42,3,4.47-.13,2.8-6.28,3.11-10.51H618l.06,11.81h-1.86a11.09,11.09,0,0,0-.12-2.05,3.88,3.88,0,0,1-3.73,2.3"/><path id="Y-10" data-name="Y" d="M621,1007.84V1006h2v1.87Zm0,14.35v-11.81h2v11.81h-2"/><path id="af-3" data-name="af" d="M631.53,1012.06c-4.85-1-3.29,5.66-3.54,10.13h-2l-.06-11.81h1.86a15.63,15.63,0,0,0,.12,2.43c.38-1.68,1.43-3,3.61-2.55v1.8"/><path id="aa-7" data-name="aa" d="M638.05,1010.14c3.92,0,5.35,2.61,5.22,6.58h-8.39c0,2.49.87,4.17,3.3,4.23a2.9,2.9,0,0,0,3-1.8l1.74.49c-.68,1.74-2.3,2.8-4.78,2.8-3.61,0-5.47-2.3-5.41-6.21S634.39,1010.14,638.05,1010.14Zm3.23,5c.38-3.73-4.72-4.79-6-1.74a4.44,4.44,0,0,0-.38,1.74h6.4"/><path id="ag-3" data-name="ag" d="M652.65,1013.31c-.18-2.12-5.34-2.37-5.4,0,.93,3.29,7.14.74,7.39,5.59s-9.32,4.6-9.75.49l1.74-.31c.25,2.24,6,2.8,6.09,0-.62-3.48-7-.93-7.34-5.59-.24-3.54,5.1-3.91,7.59-2.61a3.16,3.16,0,0,1,1.49,2.18"/></g><g id="n-5" data-name="n"><path id="G-11" data-name="G" d="M666.88,1022.44c-5.53.25-3.35-7.21-3.79-12.06h2v7.46c0,1.93.44,3.11,2.43,3,4.47-.13,2.79-6.28,3.1-10.51h1.93l.06,11.81h-1.86a11,11,0,0,0-.13-2.05,3.87,3.87,0,0,1-3.73,2.3"/><path id="ag-4" data-name="ag" d="M682.48,1013.31c-.19-2.12-5.34-2.37-5.41,0,.94,3.29,7.15.74,7.4,5.59s-9.32,4.6-9.76.49l1.74-.31c.25,2.24,6,2.8,6.09,0-.62-3.48-7-.93-7.33-5.59-.25-3.54,5.1-3.91,7.58-2.61a3.1,3.1,0,0,1,1.49,2.18"/><path id="aa-8" data-name="aa" d="M691.49,1010.14c3.91,0,5.34,2.61,5.22,6.58h-8.39c0,2.49.87,4.17,3.29,4.23a2.9,2.9,0,0,0,3-1.8l1.74.49c-.69,1.74-2.3,2.8-4.79,2.8-3.6,0-5.46-2.3-5.4-6.21S687.82,1010.14,691.49,1010.14Zm3.23,5c.37-3.73-4.72-4.79-6-1.74a4.63,4.63,0,0,0-.37,1.74h6.4"/><path id="af-4" data-name="af" d="M704.79,1012.06c-4.85-1-3.3,5.66-3.55,10.13h-2l-.07-11.81h1.87a15.63,15.63,0,0,0,.12,2.43c.38-1.68,1.43-3,3.61-2.55v1.8"/></g><g id="o-6" data-name="o"><path id="Y-11" data-name="Y" d="M712.8,1007.84V1006h2v1.87Zm0,14.35v-11.81h2v11.81h-2"/><path id="E-14" data-name="E" d="M723.49,1010.14c5.53-.25,3.29,7.2,3.73,12.05h-2v-7.52c0-1.92-.5-3-2.42-3-4.48.12-2.74,6.34-3,10.5h-2l-.06-11.81h1.87a9.59,9.59,0,0,0,.12,2,3.93,3.93,0,0,1,3.79-2.23"/><path id="F-8" data-name="F" d="M735.79,1010.14c3.42.06,4.35,2.54,4.35,6.09s-1,6.09-4.35,6.21a3.83,3.83,0,0,1-3.73-2.11l.07,6.52h-2l-.06-16.47H732l.13,1.87A3.65,3.65,0,0,1,735.79,1010.14ZM735.3,1021c2.48,0,2.79-2.11,2.79-4.66s-.37-4.54-2.79-4.6c-2.61,0-3.17,2-3.17,4.72s.62,4.54,3.17,4.54"/><path id="G-12" data-name="G" d="M746.29,1022.44c-5.53.25-3.35-7.21-3.79-12.06h2v7.46c0,1.93.44,3.11,2.42,3,4.48-.13,2.8-6.28,3.11-10.51H752l.06,11.81h-1.86a11,11,0,0,0-.13-2.05,3.87,3.87,0,0,1-3.73,2.3"/><path id="H-10" data-name="H" d="M757.17,1019.27c-.13,1.49,1.12,1.8,2.36,1.37v1.49c-2,.62-4.35.31-4.35-2.42v-7.9h-1.37v-1.43h1.49l.56-2.67h1.31v2.67h2.17v1.43h-2.17v7.46"/></g><path class="cls-5" d="M842.22,920.72h240v100h-240Z"/><path class="cls-6" d="M867.22,920.72h10m20,0h10m20,0h10m20,0h10m20,0h10m20,0h10m20,0h10m20,0h5v5.55m0,22.22v11.1m0,22.23v11.1m0,22.23v5.56h-5m-20,0h-10m-20,0h-10m-20,0h-10m-20,0h-10m-20,0h-10m-20,0h-10m-20,0h-10m-20,0h-5v-5.56m0-22.22v-11.1m0-22.23V948.5m0-22.23v-5.55h5"/><g id="d-11" data-name="d"><path id="D-12" data-name="D" d="M900.26,976.94V955.51h2.94v21.43h-2.94"/><path id="E-15" data-name="E" d="M916.16,960.17c7.69-.34,4.58,10,5.18,16.77h-2.76V966.48c0-2.68-.69-4.23-3.37-4.15-6.22.18-3.8,8.82-4.24,14.61h-2.76l-.09-16.42h2.59a14.12,14.12,0,0,0,.18,2.76c1-1.9,2.5-3,5.27-3.11"/><path id="F-9" data-name="F" d="M933.27,960.17c4.75.09,6.05,3.55,6.05,8.47s-1.38,8.47-6.05,8.64a5.29,5.29,0,0,1-5.18-2.93l.08,9.07h-2.76l-.09-22.9H928l.17,2.59C929,961.3,930.59,960.17,933.27,960.17Zm-.69,15c3.46,0,3.89-2.94,3.89-6.48s-.52-6.31-3.89-6.4c-3.63,0-4.41,2.77-4.41,6.57s.87,6.31,4.41,6.31"/><path id="G-13" data-name="G" d="M947.88,977.28c-7.7.35-4.67-10-5.28-16.76h2.77v10.37c0,2.68.6,4.32,3.37,4.23,6.22-.17,3.89-8.72,4.32-14.6h2.68l.09,16.42h-2.6a14.33,14.33,0,0,0-.17-2.85,5.38,5.38,0,0,1-5.18,3.19"/><path id="H-11" data-name="H" d="M963,972.88c-.17,2.07,1.55,2.5,3.28,1.9v2.07c-2.85.87-6,.43-6-3.37v-11h-1.9v-2h2.08l.77-3.72H963v3.72h3v2h-3v10.37"/></g><g id="s-2" data-name="s"><path id="I-7" data-name="I" d="M988.84,963.46l-1.21,5.62h3.89v1.64h-4.24l-1.38,6.22h-1.64l1.29-6.22H980l-1.29,6.22h-1.64l1.29-6.22h-3v-1.64h3.37l1.21-5.62h-3.81v-1.64h4.15l1.3-6.14h1.73l-1.39,6.14h5.54l1.38-6.14h1.64l-1.38,6.14h3.2v1.64Zm-7.17,0-1.21,5.62h5.44l1.21-5.62h-5.44"/><path id="aj-2" data-name="aj" d="M1005.86,972.1v4.84h-2.59V972.1H993.16v-2.16l9.85-14.43h2.85v14.43h3v2.16Zm-2.59-13.48a136.1,136.1,0,0,1-7.6,11.32h7.6V958.62"/><path id="ah-2" data-name="ah" d="M1021.94,973.83c-1.3,1.81-2.68,3.54-5.88,3.45s-5-1.81-5-4.92c-.09-5.53,5.44-5.45,10.8-5.45.26-3-.78-4.66-3.54-4.66-2.08.08-3.55.6-3.63,2.68l-2.85-.26c.43-3.2,2.85-4.5,6.56-4.5,3.89,0,6.23,1.73,6.23,5.53v7.09c-.09,1.73.6,2.77,2.42,2.33v1.73C1024.36,977.63,1021.76,976.68,1021.94,973.83Zm-8-1.47a2.61,2.61,0,0,0,2.77,2.85c3.54-.26,5.44-2.51,5.18-6.39-3.72.17-8-.44-8,3.54"/></g><path class="cls-2" d="M222.22,1268.78h240v60h-240Z"/><g id="d-13" data-name="d"><path id="D-14" data-name="D" d="M288.9,1305v-21.43h2.94V1305H288.9"/><path id="E-16" data-name="E" d="M304.8,1288.24c7.69-.35,4.58,10,5.19,16.76h-2.77v-10.46c0-2.67-.69-4.23-3.37-4.14-6.22.17-3.8,8.81-4.23,14.6h-2.77l-.09-16.42h2.6a13.47,13.47,0,0,0,.17,2.77c1-1.9,2.51-3,5.27-3.11"/><path id="F-10" data-name="F" d="M321.91,1288.24c4.76.08,6,3.54,6,8.46s-1.38,8.47-6,8.65a5.3,5.3,0,0,1-5.18-2.94l.08,9.07h-2.76l-.09-22.9h2.68l.17,2.59C317.68,1289.36,319.23,1288.24,321.91,1288.24Zm-.69,15c3.46,0,3.89-2.94,3.89-6.48s-.52-6.31-3.89-6.39c-3.63,0-4.41,2.76-4.41,6.56s.87,6.31,4.41,6.31"/><path id="G-14" data-name="G" d="M336.52,1305.35c-7.69.34-4.67-10-5.27-16.77H334V1299c0,2.68.61,4.32,3.37,4.24,6.22-.18,3.89-8.73,4.32-14.61h2.68l.09,16.42h-2.59a15.08,15.08,0,0,0-.18-2.85,5.41,5.41,0,0,1-5.18,3.2"/><path id="H-12" data-name="H" d="M351.64,1300.94c-.17,2.07,1.56,2.51,3.28,1.9v2.07c-2.85.87-6,.44-6-3.37v-11H347v-2h2.08l.78-3.71h1.81v3.71h3v2h-3v10.37"/></g><g id="t-2" data-name="t"><path id="I-8" data-name="I" d="M377.48,1291.52l-1.21,5.62h3.89v1.64h-4.24l-1.38,6.22H372.9l1.3-6.22h-5.53l-1.3,6.22h-1.64l1.29-6.22h-3v-1.64h3.37l1.21-5.62h-3.8v-1.64h4.14l1.3-6.14H372l-1.38,6.14h5.53l1.38-6.14h1.64l-1.38,6.14h3.2v1.64Zm-7.17,0-1.21,5.62h5.44l1.21-5.62h-5.44"/><path id="ak" d="M385.78,1292.73c4.14-3,11.84-.69,11.32,5.27.95,8.56-13.31,9.85-14.78,2.25l2.77-.35a4.16,4.16,0,0,0,4.49,3.2c3-.09,4.41-1.9,4.67-5,.34-4.76-6.31-5.62-8.56-2.94H383l.69-11.58h12.19v2.33h-9.68"/></g><path class="cls-3" d="M571.44,1278.78h186"/><path class="cls-4" d="M556.16,1278.78l14.28-4.64v9.27Zm216.54,0-14.26,4.63v-9.26Z"/><path class="cls-2" d="M552.94,1328.78h240v60h-240Z"/><g id="j-4" data-name="j"><path id="V-3" data-name="V" d="M607.76,1363.25l-8.2-13.11.06,13.11h-1.8v-15.41h2.42l8.26,13.24-.12-13.24h1.92v15.41h-2.54"/><path id="W-7" data-name="W" d="M618.26,1351.2c3.85-.06,5.28,2.3,5.28,6.15s-1.68,6.15-5.34,6.15-5.16-2.42-5.22-6.15C613,1353.25,614.72,1351.2,618.26,1351.2ZM618.2,1362c2.73.06,3.29-1.93,3.29-4.66s-.5-4.66-3.17-4.66-3.29,2-3.29,4.66.62,4.6,3.17,4.66"/></g><g id="k-5" data-name="k"><path id="X-7" data-name="X" d="M636.65,1352.75c-2.48,0-3,2-3,4.54s.56,4.66,3,4.66a2.47,2.47,0,0,0,2.67-2.36l2,.12a4.26,4.26,0,0,1-4.6,3.79c-3.66,0-4.72-2.55-5.09-6.15-.62-5.78,6.27-8.14,9.13-4a5.23,5.23,0,0,1,.44,1.37l-2,.19a2.38,2.38,0,0,0-2.55-2.18"/><path id="W-8" data-name="W" d="M648.08,1351.2c3.86-.06,5.29,2.3,5.29,6.15s-1.68,6.15-5.35,6.15-5.16-2.42-5.22-6.15C642.8,1353.25,644.54,1351.2,648.08,1351.2ZM648,1362c2.74.06,3.29-1.93,3.29-4.66s-.49-4.66-3.16-4.66-3.3,2-3.3,4.66.62,4.6,3.17,4.66"/><path id="E-17" data-name="E" d="M661.57,1351.2c5.53-.25,3.29,7.21,3.73,12h-2v-7.52c0-1.92-.5-3-2.43-3-4.47.13-2.73,6.34-3,10.5h-2l-.06-11.8h1.86a9.65,9.65,0,0,0,.13,2,3.92,3.92,0,0,1,3.79-2.24"/><path id="H-13" data-name="H" d="M670.39,1360.33c-.12,1.49,1.12,1.8,2.36,1.37v1.49c-2,.62-4.35.31-4.35-2.42v-7.89H667v-1.43h1.49l.56-2.68h1.3v2.68h2.18v1.43h-2.18v7.45"/><path id="Y-12" data-name="Y" d="M674.43,1348.9V1347h2v1.86Zm0,14.35v-11.8h2v11.8h-2"/><path id="E-18" data-name="E" d="M685.12,1351.2c5.53-.25,3.29,7.21,3.72,12h-2v-7.52c0-1.92-.5-3-2.43-3-4.47.13-2.73,6.34-3,10.5h-2l-.06-11.8h1.86a9.65,9.65,0,0,0,.13,2,3.92,3.92,0,0,1,3.79-2.24"/><path id="Z-5" data-name="Z" d="M701.27,1351.45c-.62,7.76,2.55,18.2-6.83,16.21a3.55,3.55,0,0,1-2.74-2.67l2-.31c.93,2.92,6.22,2,5.53-1.74v-1.86a3.93,3.93,0,0,1-3.79,2.23c-3.35,0-4.22-2.54-4.22-6s1-6,4.41-6.09a4,4,0,0,1,3.66,2.18c.07-.63,0-1.43.13-2Zm-5.16,10.44c2.24,0,3.11-2,3.11-4.54s-.87-4.66-3.11-4.66c-2.42,0-2.85,2.11-2.85,4.66s.37,4.54,2.85,4.54"/><path id="aa-9" data-name="aa" d="M708.91,1351.2c3.92,0,5.35,2.61,5.22,6.58h-8.38c0,2.49.87,4.17,3.29,4.23a2.9,2.9,0,0,0,3-1.8l1.74.5c-.68,1.73-2.3,2.79-4.78,2.79-3.6,0-5.47-2.3-5.41-6.21S705.25,1351.2,708.91,1351.2Zm3.24,5c.37-3.73-4.73-4.78-6-1.74a4.49,4.49,0,0,0-.37,1.74h6.4"/><path id="E-19" data-name="E" d="M722.4,1351.2c5.53-.25,3.29,7.21,3.73,12h-2v-7.52c0-1.92-.5-3-2.43-3-4.47.13-2.73,6.34-3,10.5h-2l-.06-11.8h1.86a10.4,10.4,0,0,0,.13,2,3.92,3.92,0,0,1,3.79-2.24"/><path id="X-8" data-name="X" d="M733.52,1352.75c-2.48,0-3,2-3,4.54s.56,4.66,3,4.66a2.47,2.47,0,0,0,2.67-2.36l2,.12a4.26,4.26,0,0,1-4.6,3.79c-3.66,0-4.72-2.55-5.09-6.15-.62-5.78,6.27-8.14,9.13-4a5.23,5.23,0,0,1,.44,1.37l-2,.19a2.38,2.38,0,0,0-2.55-2.18"/><path id="ab-3" data-name="ab" d="M749.86,1351.45l-5.34,13.73c-.87,1.74-2.3,3.17-5,2.61v-1.49c2.42.37,3.29-1.25,4-3.11l-4.66-11.74h2.11l3.55,9.69,3.35-9.69h2.05"/></g><path class="cls-2" d="M222.22,1518.78h240v60h-240Z"/><g id="d-15" data-name="d"><path id="D-16" data-name="D" d="M288.9,1555v-21.43h2.94V1555H288.9"/><path id="E-20" data-name="E" d="M304.8,1538.24c7.69-.35,4.58,10,5.19,16.76h-2.77v-10.46c0-2.67-.69-4.23-3.37-4.14-6.22.17-3.8,8.81-4.23,14.6h-2.77l-.09-16.42h2.6a13.47,13.47,0,0,0,.17,2.77c1-1.9,2.51-3,5.27-3.11"/><path id="F-11" data-name="F" d="M321.91,1538.24c4.76.08,6,3.54,6,8.46s-1.38,8.47-6,8.65a5.3,5.3,0,0,1-5.18-2.94l.08,9.07h-2.76l-.09-22.9h2.68l.17,2.59C317.68,1539.36,319.23,1538.24,321.91,1538.24Zm-.69,15c3.46,0,3.89-2.94,3.89-6.48s-.52-6.31-3.89-6.39c-3.63,0-4.41,2.76-4.41,6.56s.87,6.31,4.41,6.31"/><path id="G-15" data-name="G" d="M336.52,1555.35c-7.69.34-4.67-10-5.27-16.77H334V1549c0,2.68.61,4.32,3.37,4.24,6.22-.18,3.89-8.73,4.32-14.61h2.68l.09,16.42h-2.59a15.08,15.08,0,0,0-.18-2.85,5.41,5.41,0,0,1-5.18,3.2"/><path id="H-14" data-name="H" d="M351.64,1550.94c-.17,2.07,1.56,2.51,3.28,1.9v2.07c-2.85.87-6,.44-6-3.37v-11H347v-2h2.08l.78-3.71h1.81v3.71h3v2h-3v10.37"/></g><g id="u-2" data-name="u"><path id="I-9" data-name="I" d="M377.48,1541.52l-1.21,5.62h3.89v1.64h-4.24l-1.38,6.22H372.9l1.3-6.22h-5.53l-1.3,6.22h-1.64l1.29-6.22h-3v-1.64h3.37l1.21-5.62h-3.8v-1.64h4.14l1.3-6.14H372l-1.38,6.14h5.53l1.38-6.14h1.64l-1.38,6.14h3.2v1.64Zm-7.17,0-1.21,5.62h5.44l1.21-5.62h-5.44"/><path id="al" d="M390.62,1541.17c4.14.09,6.39,2.6,6.39,6.83,0,4.58-2.42,7.35-6.91,7.35-5.62,0-7.18-4.76-7.43-10.55-.44-7.77,4.32-14,11.49-10.54a5,5,0,0,1,2.33,3.37l-2.68.52c-.43-3.46-5.79-3.28-7.08-.52a14.94,14.94,0,0,0-1.3,6.4A5.34,5.34,0,0,1,390.62,1541.17ZM390,1553.1c2.94,0,4.24-2,4.24-5s-1.39-4.84-4.33-4.84c-2.5,0-4.32,1.38-4.23,4.23.09,3.11,1.3,5.62,4.32,5.62"/></g><path class="cls-3" d="M552.44,1518.78h203.5m-203.48,0h-1"/><path class="cls-4" d="M771.2,1518.78l-14.26,4.63v-9.26Z"/><path class="cls-2" d="M532.94,1558.78h260v74h-260Z"/><g id="m-5" data-name="m"><path id="ad-3" data-name="ad" d="M580.64,1589.25a4.09,4.09,0,0,1-3.73,4.35l4.35,6.65H578.9l-4-6.4h-4.78v6.4H568v-15.41C573.49,1585,580.76,1583.54,580.64,1589.25Zm-10.56,3c3.72-.13,8.51.8,8.51-2.92s-5-2.61-8.51-2.8v5.72"/><path id="aa-10" data-name="aa" d="M588.47,1588.2c3.91,0,5.34,2.61,5.22,6.58H585.3c0,2.49.87,4.17,3.29,4.23a2.91,2.91,0,0,0,3-1.8l1.74.5c-.69,1.73-2.3,2.79-4.79,2.79-3.6,0-5.47-2.3-5.4-6.21S584.8,1588.2,588.47,1588.2Zm3.23,5c.37-3.73-4.72-4.78-6-1.74a4.68,4.68,0,0,0-.37,1.74h6.4"/><path id="ae-3" data-name="ae" d="M603.69,1598.33a3.77,3.77,0,0,1-3.73,2.17c-3.29,0-4.28-2.42-4.35-6.09s1.06-6.15,4.35-6.21a3.87,3.87,0,0,1,3.73,2,6.6,6.6,0,0,1,.13-2h1.86l-.06,16.65h-2Zm-3.23.62c2.55,0,3.17-2,3.17-4.72s-.5-4.54-3.11-4.54-2.86,2.17-2.86,4.66.31,4.6,2.8,4.6"/><path id="G-16" data-name="G" d="M612.33,1600.5c-5.53.25-3.36-7.21-3.79-12h2v7.45c0,1.93.43,3.11,2.42,3,4.47-.13,2.8-6.28,3.11-10.5H618l.06,11.8h-1.86a11.09,11.09,0,0,0-.12-2,3.88,3.88,0,0,1-3.73,2.3"/><path id="Y-13" data-name="Y" d="M621,1585.9V1584h2v1.86Zm0,14.35v-11.8h2v11.8h-2"/><path id="af-5" data-name="af" d="M631.53,1590.12c-4.85-1-3.29,5.66-3.54,10.13h-2l-.06-11.8h1.86a15.56,15.56,0,0,0,.12,2.42c.38-1.68,1.43-3,3.61-2.55v1.8"/><path id="aa-11" data-name="aa" d="M638.05,1588.2c3.92,0,5.35,2.61,5.22,6.58h-8.39c0,2.49.87,4.17,3.3,4.23a2.9,2.9,0,0,0,3-1.8l1.74.5c-.68,1.73-2.3,2.79-4.78,2.79-3.61,0-5.47-2.3-5.41-6.21S634.39,1588.2,638.05,1588.2Zm3.23,5c.38-3.73-4.72-4.78-6-1.74a4.48,4.48,0,0,0-.38,1.74h6.4"/><path id="ag-5" data-name="ag" d="M652.65,1591.37c-.18-2.12-5.34-2.36-5.4,0,.93,3.29,7.14.74,7.39,5.59s-9.32,4.6-9.75.5l1.74-.31c.25,2.23,6,2.79,6.09,0-.62-3.48-7-.94-7.34-5.6-.24-3.54,5.1-3.91,7.59-2.61a3.16,3.16,0,0,1,1.49,2.18"/></g><g id="n-6" data-name="n"><path id="G-17" data-name="G" d="M666.88,1600.5c-5.53.25-3.35-7.21-3.79-12h2v7.45c0,1.93.44,3.11,2.43,3,4.47-.13,2.79-6.28,3.1-10.5h1.93l.06,11.8h-1.86a11,11,0,0,0-.13-2,3.87,3.87,0,0,1-3.73,2.3"/><path id="ag-6" data-name="ag" d="M682.48,1591.37c-.19-2.12-5.34-2.36-5.41,0,.94,3.29,7.15.74,7.4,5.59s-9.32,4.6-9.76.5l1.74-.31c.25,2.23,6,2.79,6.09,0-.62-3.48-7-.94-7.33-5.6-.25-3.54,5.1-3.91,7.58-2.61a3.1,3.1,0,0,1,1.49,2.18"/><path id="aa-12" data-name="aa" d="M691.49,1588.2c3.91,0,5.34,2.61,5.22,6.58h-8.39c0,2.49.87,4.17,3.29,4.23a2.9,2.9,0,0,0,3-1.8l1.74.5c-.69,1.73-2.3,2.79-4.79,2.79-3.6,0-5.46-2.3-5.4-6.21S687.82,1588.2,691.49,1588.2Zm3.23,5c.37-3.73-4.72-4.78-6-1.74a4.68,4.68,0,0,0-.37,1.74h6.4"/><path id="af-6" data-name="af" d="M704.79,1590.12c-4.85-1-3.3,5.66-3.55,10.13h-2l-.07-11.8h1.87a15.56,15.56,0,0,0,.12,2.42c.38-1.68,1.43-3,3.61-2.55v1.8"/></g><g id="o-7" data-name="o"><path id="Y-14" data-name="Y" d="M712.8,1585.9V1584h2v1.86Zm0,14.35v-11.8h2v11.8h-2"/><path id="E-21" data-name="E" d="M723.49,1588.2c5.53-.25,3.29,7.21,3.73,12h-2v-7.52c0-1.92-.5-3-2.42-3-4.48.13-2.74,6.34-3,10.5h-2l-.06-11.8h1.87a9.68,9.68,0,0,0,.12,2,3.92,3.92,0,0,1,3.79-2.24"/><path id="F-12" data-name="F" d="M735.79,1588.2c3.42.06,4.35,2.55,4.35,6.09s-1,6.09-4.35,6.21a3.83,3.83,0,0,1-3.73-2.11l.07,6.52h-2l-.06-16.46H732l.13,1.86A3.66,3.66,0,0,1,735.79,1588.2ZM735.3,1599c2.48,0,2.79-2.11,2.79-4.66s-.37-4.54-2.79-4.6c-2.61,0-3.17,2-3.17,4.72s.62,4.54,3.17,4.54"/><path id="G-18" data-name="G" d="M746.29,1600.5c-5.53.25-3.35-7.21-3.79-12h2v7.45c0,1.93.44,3.11,2.42,3,4.48-.13,2.8-6.28,3.11-10.5H752l.06,11.8h-1.86a11,11,0,0,0-.13-2,3.87,3.87,0,0,1-3.73,2.3"/><path id="H-15" data-name="H" d="M757.17,1597.33c-.13,1.49,1.12,1.8,2.36,1.37v1.49c-2,.62-4.35.31-4.35-2.42v-7.89h-1.37v-1.43h1.49l.56-2.68h1.31v2.68h2.17v1.43h-2.17v7.45"/></g><path class="cls-5" d="M842.22,1498.78h240v100h-240Z"/><path class="cls-6" d="M867.22,1498.78h10m20,0h10m20,0h10m20,0h10m20,0h10m20,0h10m20,0h10m20,0h5v5.55m0,22.23v11.1m0,22.23V1571m0,22.22v5.56h-5m-20,0h-10m-20,0h-10m-20,0h-10m-20,0h-10m-20,0h-10m-20,0h-10m-20,0h-10m-20,0h-5v-5.56m0-22.22v-11.1m0-22.23v-11.1m0-22.24v-5.55h5"/><g id="d-17" data-name="d"><path id="D-18" data-name="D" d="M900.26,1555v-21.43h2.94V1555h-2.94"/><path id="E-22" data-name="E" d="M916.16,1538.24c7.69-.35,4.58,10,5.18,16.76h-2.76v-10.46c0-2.67-.69-4.23-3.37-4.14-6.22.17-3.8,8.81-4.24,14.6h-2.76l-.09-16.42h2.59a14.17,14.17,0,0,0,.18,2.77c1-1.9,2.5-3,5.27-3.11"/><path id="F-13" data-name="F" d="M933.27,1538.24c4.75.08,6.05,3.54,6.05,8.46s-1.38,8.47-6.05,8.65a5.3,5.3,0,0,1-5.18-2.94l.08,9.07h-2.76l-.09-22.9H928l.17,2.59C929,1539.36,930.59,1538.24,933.27,1538.24Zm-.69,15c3.46,0,3.89-2.94,3.89-6.48s-.52-6.31-3.89-6.39c-3.63,0-4.41,2.76-4.41,6.56s.87,6.31,4.41,6.31"/><path id="G-19" data-name="G" d="M947.88,1555.35c-7.7.34-4.67-10-5.28-16.77h2.77V1549c0,2.68.6,4.32,3.37,4.24,6.22-.18,3.89-8.73,4.32-14.61h2.68l.09,16.42h-2.6a14.33,14.33,0,0,0-.17-2.85,5.41,5.41,0,0,1-5.18,3.2"/><path id="H-16" data-name="H" d="M963,1550.94c-.17,2.07,1.55,2.51,3.28,1.9v2.07c-2.85.87-6,.44-6-3.37v-11h-1.9v-2h2.08l.77-3.71H963v3.71h3v2h-3v10.37"/></g><g id="v-4" data-name="v"><path id="I-10" data-name="I" d="M988.84,1541.52l-1.21,5.62h3.89v1.64h-4.24L985.9,1555h-1.64l1.29-6.22H980l-1.29,6.22h-1.64l1.29-6.22h-3v-1.64h3.37l1.21-5.62h-3.81v-1.64h4.15l1.3-6.14h1.73l-1.39,6.14h5.54l1.38-6.14h1.64l-1.38,6.14h3.2v1.64Zm-7.17,0-1.21,5.62h5.44l1.21-5.62h-5.44"/><path id="al-2" data-name="al" d="M1002,1541.17c4.15.09,6.4,2.6,6.4,6.83,0,4.58-2.42,7.35-6.91,7.35-5.62,0-7.18-4.76-7.44-10.55-.43-7.77,4.32-14,11.5-10.54a5,5,0,0,1,2.33,3.37l-2.68.52c-.43-3.46-5.79-3.28-7.08-.52a14.94,14.94,0,0,0-1.3,6.4A5.33,5.33,0,0,1,1002,1541.17Zm-.6,11.93c2.94,0,4.23-2,4.23-5s-1.38-4.84-4.32-4.84c-2.5,0-4.32,1.38-4.23,4.23.08,3.11,1.29,5.62,4.32,5.62"/><path id="ah-3" data-name="ah" d="M1021.94,1551.89c-1.3,1.81-2.68,3.54-5.88,3.46s-5-1.82-5-4.93c-.09-5.53,5.44-5.44,10.8-5.44.26-3-.78-4.67-3.54-4.67-2.08.09-3.55.6-3.63,2.68l-2.85-.26c.43-3.2,2.85-4.49,6.56-4.49,3.89,0,6.23,1.72,6.23,5.53v7.08c-.09,1.73.6,2.77,2.42,2.34v1.72C1024.36,1555.69,1021.76,1554.74,1021.94,1551.89Zm-8-1.47a2.61,2.61,0,0,0,2.77,2.85c3.54-.26,5.44-2.5,5.18-6.39-3.72.17-8-.43-8,3.54"/></g><path class="cls-7" d="M12,608.78H1332m-1320,0H11m1321,0h1m-1321,560H1332m-1320,0H11m1321,0h1"/></svg>